<svg width="400" height="303" viewBox="0 0 400 303" fill="none" xmlns="http://www.w3.org/2000/svg">
<rect width="400" height="303" rx="12" fill="#F2F2F2"/>
<path d="M25.088 193.73L25.088 191.924L35 187.612L35 190.076L32.9 190.93L32.9 194.78L35 195.606L35 198.014L25.088 193.73ZM27.972 192.89L31.052 194.094L31.052 191.672L27.972 192.89ZM25.088 186.615L25.088 182.779C25.088 182.275 25.1393 181.799 25.242 181.351C25.3353 180.894 25.4987 180.497 25.732 180.161C25.956 179.816 26.264 179.545 26.656 179.349C27.0387 179.144 27.5193 179.041 28.098 179.041C28.798 179.041 29.3953 179.223 29.89 179.587C30.3753 179.951 30.6833 180.483 30.814 181.183L35 178.663L35 181.281L31.038 183.353L31.038 184.431L35 184.431L35 186.615L25.088 186.615ZM29.19 184.431L29.19 183.143C29.19 182.947 29.1853 182.742 29.176 182.527C29.1573 182.303 29.1153 182.102 29.05 181.925C28.9753 181.748 28.8633 181.603 28.714 181.491C28.5647 181.37 28.3547 181.309 28.084 181.309C27.832 181.309 27.6313 181.36 27.482 181.463C27.3327 181.566 27.2207 181.696 27.146 181.855C27.062 182.014 27.006 182.196 26.978 182.401C26.95 182.606 26.936 182.807 26.936 183.003L26.936 184.431L29.19 184.431ZM25.088 177.537L25.088 173.701C25.088 173.197 25.1393 172.721 25.242 172.273C25.3353 171.816 25.4987 171.419 25.732 171.083C25.956 170.738 26.264 170.467 26.656 170.271C27.0387 170.066 27.5193 169.963 28.098 169.963C28.798 169.963 29.3953 170.145 29.89 170.509C30.3753 170.873 30.6833 171.405 30.814 172.105L35 169.585L35 172.203L31.038 174.275L31.038 175.353L35 175.353L35 177.537L25.088 177.537ZM29.19 175.353L29.19 174.065C29.19 173.869 29.1853 173.664 29.176 173.449C29.1573 173.225 29.1153 173.024 29.05 172.847C28.9753 172.67 28.8633 172.525 28.714 172.413C28.5647 172.292 28.3547 172.231 28.084 172.231C27.832 172.231 27.6313 172.282 27.482 172.385C27.3327 172.488 27.2207 172.618 27.146 172.777C27.062 172.936 27.006 173.118 26.978 173.323C26.95 173.528 26.936 173.729 26.936 173.925L26.936 175.353L29.19 175.353ZM37.184 162.756C36.26 163.428 35.2613 163.937 34.188 164.282C33.1147 164.628 32.0413 164.8 30.968 164.8C29.8107 164.8 28.7047 164.623 27.65 164.268C26.5953 163.904 25.6293 163.4 24.752 162.756L25.312 162C26.1333 162.598 27.0247 163.046 27.986 163.344C28.9473 163.643 29.9413 163.792 30.968 163.792C31.528 163.792 32.0507 163.755 32.536 163.68C33.0213 163.606 33.4927 163.494 33.95 163.344C34.398 163.195 34.8413 163.008 35.28 162.784C35.7187 162.56 36.176 162.299 36.652 162L37.184 162.756ZM25.088 157.222L25.088 156.116L35 151.902L35 153.274L32.564 154.282L32.564 159.238L35 160.26L35 161.59L25.088 157.222ZM26.6 156.69L26.6 156.718L31.472 158.776L31.472 154.73L26.6 156.69ZM28.448 150.836L28.448 149.744L29.4 149.744L29.4 149.716C29.0453 149.418 28.77 149.072 28.574 148.68C28.378 148.279 28.28 147.84 28.28 147.364C28.28 146.851 28.3687 146.384 28.546 145.964C28.714 145.535 28.952 145.171 29.26 144.872C29.568 144.574 29.932 144.34 30.352 144.172C30.772 144.004 31.2293 143.92 31.724 143.92C32.2187 143.92 32.676 144.004 33.096 144.172C33.516 144.34 33.88 144.574 34.188 144.872C34.496 145.162 34.7387 145.507 34.916 145.908C35.084 146.31 35.168 146.739 35.168 147.196C35.168 147.784 35.042 148.302 34.79 148.75C34.5287 149.189 34.2113 149.511 33.838 149.716L33.838 149.744L38.192 149.744L38.192 150.836L28.448 150.836ZM31.724 149.744C32.0693 149.744 32.3913 149.693 32.69 149.59C32.9793 149.478 33.236 149.32 33.46 149.114C33.6747 148.909 33.8473 148.666 33.978 148.386C34.0993 148.097 34.16 147.775 34.16 147.42C34.16 147.066 34.0993 146.748 33.978 146.468C33.8473 146.179 33.6747 145.932 33.46 145.726C33.236 145.521 32.9793 145.367 32.69 145.264C32.3913 145.152 32.0693 145.096 31.724 145.096C31.3787 145.096 31.0613 145.152 30.772 145.264C30.4733 145.367 30.2167 145.521 30.002 145.726C29.778 145.932 29.6053 146.179 29.484 146.468C29.3533 146.748 29.288 147.066 29.288 147.42C29.288 147.775 29.3533 148.097 29.484 148.386C29.6053 148.666 29.778 148.909 30.002 149.114C30.2167 149.32 30.4733 149.478 30.772 149.59C31.0613 149.693 31.3787 149.744 31.724 149.744ZM28.448 142.278L28.448 141.186L29.4 141.186L29.4 141.158C29.0453 140.859 28.77 140.514 28.574 140.122C28.378 139.72 28.28 139.282 28.28 138.806C28.28 138.292 28.3687 137.826 28.546 137.406C28.714 136.976 28.952 136.612 29.26 136.314C29.568 136.015 29.932 135.782 30.352 135.614C30.772 135.446 31.2293 135.362 31.724 135.362C32.2187 135.362 32.676 135.446 33.096 135.614C33.516 135.782 33.88 136.015 34.188 136.314C34.496 136.603 34.7387 136.948 34.916 137.35C35.084 137.751 35.168 138.18 35.168 138.638C35.168 139.226 35.042 139.744 34.79 140.192C34.5287 140.63 34.2113 140.952 33.838 141.158L33.838 141.186L38.192 141.186L38.192 142.278L28.448 142.278ZM31.724 141.186C32.0693 141.186 32.3913 141.134 32.69 141.032C32.9793 140.92 33.236 140.761 33.46 140.556C33.6747 140.35 33.8473 140.108 33.978 139.828C34.0993 139.538 34.16 139.216 34.16 138.862C34.16 138.507 34.0993 138.19 33.978 137.91C33.8473 137.62 33.6747 137.373 33.46 137.168C33.236 136.962 32.9793 136.808 32.69 136.706C32.3913 136.594 32.0693 136.538 31.724 136.538C31.3787 136.538 31.0613 136.594 30.772 136.706C30.4733 136.808 30.2167 136.962 30.002 137.168C29.778 137.373 29.6053 137.62 29.484 137.91C29.3533 138.19 29.288 138.507 29.288 138.862C29.288 139.216 29.3533 139.538 29.484 139.828C29.6053 140.108 29.778 140.35 30.002 140.556C30.2167 140.761 30.4733 140.92 30.772 141.032C31.0613 141.134 31.3787 141.186 31.724 141.186ZM30.002 133.663C29.7033 133.663 29.4233 133.673 29.162 133.691C28.9007 133.71 28.6627 133.719 28.448 133.719L28.448 132.683C28.6253 132.683 28.8027 132.679 28.98 132.669C29.1573 132.66 29.3393 132.655 29.526 132.655L29.526 132.627C29.3673 132.553 29.2133 132.45 29.064 132.319C28.9147 132.179 28.784 132.016 28.672 131.829C28.5507 131.643 28.4573 131.433 28.392 131.199C28.3173 130.966 28.28 130.714 28.28 130.443C28.28 130.369 28.2847 130.294 28.294 130.219C28.3033 130.145 28.322 130.07 28.35 129.995L29.456 130.065C29.4 130.252 29.372 130.448 29.372 130.653C29.372 131.325 29.5913 131.815 30.03 132.123C30.4593 132.422 31.052 132.571 31.808 132.571L35 132.571L35 133.663L30.002 133.663ZM31.724 129.365C31.2107 129.365 30.744 129.277 30.324 129.099C29.904 128.922 29.5447 128.679 29.246 128.371C28.938 128.063 28.7 127.695 28.532 127.265C28.364 126.836 28.28 126.369 28.28 125.865C28.28 125.361 28.364 124.895 28.532 124.465C28.7 124.036 28.938 123.667 29.246 123.359C29.5447 123.051 29.904 122.809 30.324 122.631C30.744 122.454 31.2107 122.365 31.724 122.365C32.2373 122.365 32.704 122.454 33.124 122.631C33.544 122.809 33.908 123.051 34.216 123.359C34.5147 123.667 34.748 124.036 34.916 124.465C35.084 124.895 35.168 125.361 35.168 125.865C35.168 126.369 35.084 126.836 34.916 127.265C34.748 127.695 34.5147 128.063 34.216 128.371C33.908 128.679 33.544 128.922 33.124 129.099C32.704 129.277 32.2373 129.365 31.724 129.365ZM31.724 128.189C32.0693 128.189 32.3913 128.138 32.69 128.035C32.9793 127.923 33.236 127.765 33.46 127.559C33.6747 127.354 33.8473 127.111 33.978 126.831C34.0993 126.542 34.16 126.22 34.16 125.865C34.16 125.511 34.0993 125.193 33.978 124.913C33.8473 124.624 33.6747 124.377 33.46 124.171C33.236 123.966 32.9793 123.812 32.69 123.709C32.3913 123.597 32.0693 123.541 31.724 123.541C31.3787 123.541 31.0613 123.597 30.772 123.709C30.4733 123.812 30.2167 123.966 30.002 124.171C29.778 124.377 29.6053 124.624 29.484 124.913C29.3533 125.193 29.288 125.511 29.288 125.865C29.288 126.22 29.3533 126.542 29.484 126.831C29.6053 127.111 29.778 127.354 30.002 127.559C30.2167 127.765 30.4733 127.923 30.772 128.035C31.0613 128.138 31.3787 128.189 31.724 128.189ZM31.472 118.981L28.448 121.333L28.448 119.905L30.8 118.169L28.448 116.531L28.448 115.201L31.472 117.455L35 114.753L35 116.195L32.172 118.267L35 120.311L35 121.669L31.472 118.981ZM24.752 113.633C25.676 112.961 26.6747 112.452 27.748 112.107C28.8213 111.762 29.8947 111.589 30.968 111.589C32.1253 111.589 33.2313 111.771 34.286 112.135C35.3407 112.49 36.3067 112.989 37.184 113.633L36.624 114.389C35.8027 113.792 34.9113 113.344 33.95 113.045C32.9887 112.746 31.9947 112.597 30.968 112.597C30.408 112.597 29.8853 112.634 29.4 112.709C28.9147 112.784 28.448 112.896 28 113.045C27.5427 113.194 27.0947 113.381 26.656 113.605C26.2173 113.829 25.76 114.09 25.284 114.389L24.752 113.633Z" fill="black"/>
<path d="M138.008 31.088H141.312L143.594 37.556H143.622L145.918 31.088H149.208V41H147.024V33.398H146.996L144.392 41H142.726L140.22 33.398H140.192V41H138.008V31.088ZM157.515 41H155.499V40.076H155.471C155.396 40.2067 155.298 40.3373 155.177 40.468C155.065 40.5987 154.925 40.7153 154.757 40.818C154.589 40.9207 154.397 41.0047 154.183 41.07C153.968 41.1353 153.735 41.168 153.483 41.168C152.951 41.168 152.517 41.0887 152.181 40.93C151.854 40.762 151.597 40.5333 151.411 40.244C151.233 39.9547 151.112 39.614 151.047 39.222C150.991 38.83 150.963 38.4053 150.963 37.948V34.196H153.063V37.528C153.063 37.724 153.067 37.9293 153.077 38.144C153.095 38.3493 153.137 38.5407 153.203 38.718C153.277 38.8953 153.385 39.04 153.525 39.152C153.674 39.264 153.884 39.32 154.155 39.32C154.425 39.32 154.645 39.2733 154.813 39.18C154.981 39.0773 155.107 38.9467 155.191 38.788C155.284 38.62 155.345 38.4333 155.373 38.228C155.401 38.0227 155.415 37.808 155.415 37.584V34.196H157.515V41ZM159.002 34.196H161.102V35.288H161.13C161.354 34.868 161.62 34.5553 161.928 34.35C162.236 34.1353 162.623 34.028 163.09 34.028C163.211 34.028 163.332 34.0327 163.454 34.042C163.575 34.0513 163.687 34.07 163.79 34.098V36.016C163.64 35.9693 163.491 35.9367 163.342 35.918C163.202 35.89 163.052 35.876 162.894 35.876C162.492 35.876 162.175 35.932 161.942 36.044C161.708 36.156 161.526 36.3147 161.396 36.52C161.274 36.716 161.195 36.954 161.158 37.234C161.12 37.514 161.102 37.822 161.102 38.158V41H159.002V34.196ZM168.973 40.146H168.945C168.712 40.51 168.399 40.7713 168.007 40.93C167.624 41.0887 167.218 41.168 166.789 41.168C166.472 41.168 166.164 41.1213 165.865 41.028C165.576 40.944 165.319 40.8133 165.095 40.636C164.871 40.4587 164.694 40.2393 164.563 39.978C164.432 39.7167 164.367 39.4133 164.367 39.068C164.367 38.676 164.437 38.3447 164.577 38.074C164.726 37.8033 164.922 37.5793 165.165 37.402C165.417 37.2247 165.702 37.0893 166.019 36.996C166.336 36.8933 166.663 36.8187 166.999 36.772C167.344 36.7253 167.685 36.6973 168.021 36.688C168.366 36.6787 168.684 36.674 168.973 36.674C168.973 36.3007 168.838 36.0067 168.567 35.792C168.306 35.568 167.993 35.456 167.629 35.456C167.284 35.456 166.966 35.5307 166.677 35.68C166.397 35.82 166.145 36.016 165.921 36.268L164.801 35.12C165.193 34.756 165.65 34.4853 166.173 34.308C166.696 34.1213 167.237 34.028 167.797 34.028C168.413 34.028 168.917 34.1073 169.309 34.266C169.71 34.4153 170.028 34.6393 170.261 34.938C170.504 35.2367 170.672 35.6053 170.765 36.044C170.858 36.4733 170.905 36.9727 170.905 37.542V41H168.973V40.146ZM168.455 38.018C168.296 38.018 168.096 38.0273 167.853 38.046C167.62 38.0553 167.391 38.0927 167.167 38.158C166.952 38.2233 166.766 38.3213 166.607 38.452C166.458 38.5827 166.383 38.7647 166.383 38.998C166.383 39.25 166.49 39.4367 166.705 39.558C166.92 39.6793 167.144 39.74 167.377 39.74C167.582 39.74 167.778 39.712 167.965 39.656C168.161 39.6 168.334 39.5207 168.483 39.418C168.632 39.3153 168.749 39.1847 168.833 39.026C168.926 38.8673 168.973 38.6807 168.973 38.466V38.018H168.455ZM172.25 30.416H174.35V41H172.25V30.416ZM183.53 31.088H185.336L189.648 41H187.184L186.33 38.9H182.48L181.654 41H179.246L183.53 31.088ZM184.37 33.972L183.166 37.052H185.588L184.37 33.972ZM190.645 31.088H194.481C194.985 31.088 195.461 31.1393 195.909 31.242C196.366 31.3353 196.763 31.4987 197.099 31.732C197.444 31.956 197.715 32.264 197.911 32.656C198.116 33.0387 198.219 33.5193 198.219 34.098C198.219 34.798 198.037 35.3953 197.673 35.89C197.309 36.3753 196.777 36.6833 196.077 36.814L198.597 41L195.979 41L193.907 37.038H192.829V41H190.645V31.088ZM192.829 35.19H194.117C194.313 35.19 194.518 35.1853 194.733 35.176C194.957 35.1573 195.157 35.1153 195.335 35.05C195.512 34.9753 195.657 34.8633 195.769 34.714C195.89 34.5647 195.951 34.3547 195.951 34.084C195.951 33.832 195.899 33.6313 195.797 33.482C195.694 33.3327 195.563 33.2207 195.405 33.146C195.246 33.062 195.064 33.006 194.859 32.978C194.653 32.95 194.453 32.936 194.257 32.936H192.829V35.19ZM199.723 31.088H203.559C204.063 31.088 204.539 31.1393 204.987 31.242C205.444 31.3353 205.841 31.4987 206.177 31.732C206.522 31.956 206.793 32.264 206.989 32.656C207.194 33.0387 207.297 33.5193 207.297 34.098C207.297 34.798 207.115 35.3953 206.751 35.89C206.387 36.3753 205.855 36.6833 205.155 36.814L207.675 41H205.057L202.985 37.038H201.907V41H199.723V31.088ZM201.907 35.19H203.195C203.391 35.19 203.596 35.1853 203.811 35.176C204.035 35.1573 204.236 35.1153 204.413 35.05C204.59 34.9753 204.735 34.8633 204.847 34.714C204.968 34.5647 205.029 34.3547 205.029 34.084C205.029 33.832 204.978 33.6313 204.875 33.482C204.772 33.3327 204.642 33.2207 204.483 33.146C204.324 33.062 204.142 33.006 203.937 32.978C203.732 32.95 203.531 32.936 203.335 32.936H201.907V35.19ZM221.918 40.3C221.274 40.636 220.602 40.8787 219.902 41.028C219.202 41.1773 218.488 41.252 217.76 41.252C216.985 41.252 216.271 41.1307 215.618 40.888C214.964 40.6453 214.4 40.3 213.924 39.852C213.448 39.3947 213.074 38.844 212.804 38.2C212.542 37.556 212.412 36.8373 212.412 36.044C212.412 35.2507 212.542 34.532 212.804 33.888C213.074 33.244 213.448 32.698 213.924 32.25C214.4 31.7927 214.964 31.4427 215.618 31.2C216.271 30.9573 216.985 30.836 217.76 30.836C218.553 30.836 219.281 30.934 219.944 31.13C220.616 31.3167 221.204 31.6433 221.708 32.11L220.168 33.79C219.869 33.482 219.533 33.2487 219.16 33.09C218.786 32.9313 218.32 32.852 217.76 32.852C217.293 32.852 216.868 32.9313 216.486 33.09C216.112 33.2487 215.79 33.4727 215.52 33.762C215.249 34.042 215.039 34.378 214.89 34.77C214.75 35.162 214.68 35.5867 214.68 36.044C214.68 36.5107 214.75 36.94 214.89 37.332C215.039 37.7147 215.249 38.0507 215.52 38.34C215.79 38.62 216.112 38.8393 216.486 38.998C216.868 39.1567 217.293 39.236 217.76 39.236C218.236 39.236 218.646 39.1847 218.992 39.082C219.337 38.97 219.612 38.858 219.818 38.746V37.136H218.04V35.12H221.918V40.3ZM223.574 34.196H225.674V35.288H225.702C225.926 34.868 226.192 34.5553 226.5 34.35C226.808 34.1353 227.195 34.028 227.662 34.028C227.783 34.028 227.905 34.0327 228.026 34.042C228.147 34.0513 228.259 34.07 228.362 34.098V36.016C228.213 35.9693 228.063 35.9367 227.914 35.918C227.774 35.89 227.625 35.876 227.466 35.876C227.065 35.876 226.747 35.932 226.514 36.044C226.281 36.156 226.099 36.3147 225.968 36.52C225.847 36.716 225.767 36.954 225.73 37.234C225.693 37.514 225.674 37.822 225.674 38.158V41H223.574V34.196ZM228.777 37.598C228.777 37.0567 228.875 36.5667 229.071 36.128C229.267 35.6893 229.533 35.316 229.869 35.008C230.214 34.6907 230.616 34.448 231.073 34.28C231.54 34.112 232.034 34.028 232.557 34.028C233.08 34.028 233.57 34.112 234.027 34.28C234.494 34.448 234.895 34.6907 235.231 35.008C235.576 35.316 235.847 35.6893 236.043 36.128C236.239 36.5667 236.337 37.0567 236.337 37.598C236.337 38.1393 236.239 38.6293 236.043 39.068C235.847 39.5067 235.576 39.8847 235.231 40.202C234.895 40.51 234.494 40.748 234.027 40.916C233.57 41.084 233.08 41.168 232.557 41.168C232.034 41.168 231.54 41.084 231.073 40.916C230.616 40.748 230.214 40.51 229.869 40.202C229.533 39.8847 229.267 39.5067 229.071 39.068C228.875 38.6293 228.777 38.1393 228.777 37.598ZM230.877 37.598C230.877 38.1113 231.022 38.5267 231.311 38.844C231.61 39.1613 232.025 39.32 232.557 39.32C233.089 39.32 233.5 39.1613 233.789 38.844C234.088 38.5267 234.237 38.1113 234.237 37.598C234.237 37.0847 234.088 36.6693 233.789 36.352C233.5 36.0347 233.089 35.876 232.557 35.876C232.025 35.876 231.61 36.0347 231.311 36.352C231.022 36.6693 230.877 37.0847 230.877 37.598ZM236.762 34.196H239.002L240.388 38.466H240.416L241.578 34.196H243.874L245.134 38.466H245.162L246.436 34.196H248.564L246.142 41H244.07L242.656 36.478H242.628L241.368 41H239.254L236.762 34.196ZM253.87 35.876L252.022 35.876V38.144C252.022 38.3307 252.031 38.5033 252.05 38.662C252.069 38.8113 252.111 38.942 252.176 39.054C252.241 39.166 252.339 39.2547 252.47 39.32C252.61 39.376 252.792 39.404 253.016 39.404C253.128 39.404 253.273 39.3947 253.45 39.376C253.637 39.348 253.777 39.292 253.87 39.208V40.958C253.637 41.042 253.394 41.098 253.142 41.126C252.89 41.154 252.643 41.168 252.4 41.168C252.045 41.168 251.719 41.1307 251.42 41.056C251.121 40.9813 250.86 40.8647 250.636 40.706C250.412 40.538 250.235 40.3233 250.104 40.062C249.983 39.8007 249.922 39.4833 249.922 39.11V35.876H248.578V34.196H249.922V32.18L252.022 32.18V34.196H253.87V35.876ZM257.037 30.416V35.12H257.065C257.112 34.9893 257.191 34.8587 257.303 34.728C257.415 34.5973 257.551 34.4807 257.709 34.378C257.868 34.2753 258.055 34.1913 258.269 34.126C258.484 34.0607 258.717 34.028 258.969 34.028C259.501 34.028 259.931 34.112 260.257 34.28C260.584 34.4387 260.836 34.6627 261.013 34.952C261.2 35.2413 261.326 35.582 261.391 35.974C261.457 36.366 261.489 36.7907 261.489 37.248V41H259.389V37.668C259.389 37.472 259.38 37.2713 259.361 37.066C259.352 36.8513 259.31 36.6553 259.235 36.478C259.17 36.3007 259.063 36.156 258.913 36.044C258.773 35.932 258.568 35.876 258.297 35.876C258.027 35.876 257.807 35.9273 257.639 36.03C257.471 36.1233 257.341 36.254 257.247 36.422C257.163 36.5807 257.107 36.7627 257.079 36.968C257.051 37.1733 257.037 37.388 257.037 37.612V41H254.937V30.416H257.037Z" fill="black"/>
<path d="M53.7 268.656L57.438 265.016C57.6713 264.792 57.8767 264.587 58.054 264.4C58.2313 264.204 58.376 264.017 58.488 263.84C58.6093 263.653 58.698 263.462 58.754 263.266C58.81 263.07 58.838 262.851 58.838 262.608C58.838 262.347 58.7913 262.113 58.698 261.908C58.6047 261.703 58.474 261.53 58.306 261.39C58.1473 261.241 57.956 261.129 57.732 261.054C57.5173 260.97 57.284 260.928 57.032 260.928C56.528 260.928 56.1127 261.073 55.786 261.362C55.4593 261.651 55.2493 262.034 55.156 262.51L53.882 262.398C53.9473 261.997 54.0687 261.642 54.246 261.334C54.4327 261.017 54.6613 260.755 54.932 260.55C55.212 260.345 55.5247 260.191 55.87 260.088C56.2153 259.976 56.5887 259.92 56.99 259.92C57.4007 259.92 57.788 259.981 58.152 260.102C58.516 260.214 58.8333 260.382 59.104 260.606C59.384 260.83 59.6033 261.11 59.762 261.446C59.93 261.782 60.014 262.169 60.014 262.608C60.014 263 59.958 263.355 59.846 263.672C59.7433 263.989 59.5987 264.283 59.412 264.554C59.2347 264.815 59.0293 265.067 58.796 265.31C58.572 265.543 58.334 265.777 58.082 266.01L55.03 268.88V268.908H60.084V270H53.7V268.656ZM61.3113 265.044C61.3113 264.484 61.358 263.901 61.4513 263.294C61.5446 262.687 61.7173 262.137 61.9693 261.642C62.2213 261.138 62.562 260.727 62.9913 260.41C63.43 260.083 63.99 259.92 64.6713 259.92C65.3526 259.92 65.908 260.083 66.3373 260.41C66.776 260.727 67.1213 261.138 67.3733 261.642C67.6253 262.137 67.798 262.687 67.8913 263.294C67.9846 263.901 68.0313 264.484 68.0313 265.044C68.0313 265.604 67.9846 266.187 67.8913 266.794C67.798 267.401 67.6253 267.956 67.3733 268.46C67.1213 268.955 66.776 269.365 66.3373 269.692C65.908 270.009 65.3526 270.168 64.6713 270.168C63.99 270.168 63.43 270.009 62.9913 269.692C62.562 269.365 62.2213 268.955 61.9693 268.46C61.7173 267.956 61.5446 267.401 61.4513 266.794C61.358 266.187 61.3113 265.604 61.3113 265.044ZM62.4873 265.044C62.4873 265.287 62.4966 265.557 62.5153 265.856C62.534 266.155 62.5666 266.458 62.6133 266.766C62.6693 267.065 62.744 267.359 62.8373 267.648C62.94 267.937 63.0706 268.194 63.2293 268.418C63.3973 268.642 63.598 268.824 63.8313 268.964C64.0646 269.095 64.3446 269.16 64.6713 269.16C64.998 269.16 65.278 269.095 65.5113 268.964C65.7446 268.824 65.9406 268.642 66.0993 268.418C66.2673 268.194 66.398 267.937 66.4913 267.648C66.594 267.359 66.6686 267.065 66.7153 266.766C66.7713 266.458 66.8086 266.155 66.8273 265.856C66.846 265.557 66.8553 265.287 66.8553 265.044C66.8553 264.801 66.846 264.531 66.8273 264.232C66.8086 263.933 66.7713 263.635 66.7153 263.336C66.6686 263.028 66.594 262.729 66.4913 262.44C66.398 262.151 66.2673 261.894 66.0993 261.67C65.9406 261.446 65.7446 261.269 65.5113 261.138C65.278 260.998 64.998 260.928 64.6713 260.928C64.3446 260.928 64.0646 260.998 63.8313 261.138C63.598 261.269 63.3973 261.446 63.2293 261.67C63.0706 261.894 62.94 262.151 62.8373 262.44C62.744 262.729 62.6693 263.028 62.6133 263.336C62.5666 263.635 62.534 263.933 62.5153 264.232C62.4966 264.531 62.4873 264.801 62.4873 265.044ZM73.5986 270H72.4226V261.6H72.3946L70.6166 263.098L69.9166 262.244L72.5766 260.088H73.5986V270ZM81.2659 265.87L81.2379 265.842C81.0512 265.945 80.8319 266.019 80.5799 266.066C80.3372 266.113 80.1132 266.136 79.9079 266.136C79.4786 266.136 79.0772 266.061 78.7039 265.912C78.3399 265.763 78.0226 265.553 77.7519 265.282C77.4906 265.002 77.2852 264.675 77.1359 264.302C76.9866 263.919 76.9119 263.495 76.9119 263.028C76.9119 262.543 76.9959 262.109 77.1639 261.726C77.3319 261.343 77.5652 261.021 77.8639 260.76C78.1626 260.489 78.5126 260.284 78.9139 260.144C79.3246 259.995 79.7632 259.92 80.2299 259.92C80.6966 259.92 81.1306 259.995 81.5319 260.144C81.9426 260.284 82.2972 260.489 82.5959 260.76C82.8946 261.021 83.1279 261.343 83.2959 261.726C83.4639 262.109 83.5479 262.543 83.5479 263.028C83.5479 263.317 83.5246 263.583 83.4779 263.826C83.4312 264.069 83.3659 264.302 83.2819 264.526C83.1979 264.75 83.0952 264.969 82.9739 265.184C82.8619 265.389 82.7406 265.599 82.6099 265.814L79.9779 270H78.6059L81.2659 265.87ZM80.2299 265.128C80.5286 265.128 80.8086 265.081 81.0699 264.988C81.3312 264.885 81.5552 264.745 81.7419 264.568C81.9379 264.381 82.0919 264.162 82.2039 263.91C82.3159 263.649 82.3719 263.355 82.3719 263.028C82.3719 262.711 82.3159 262.421 82.2039 262.16C82.0919 261.899 81.9379 261.679 81.7419 261.502C81.5552 261.315 81.3312 261.175 81.0699 261.082C80.8086 260.979 80.5286 260.928 80.2299 260.928C79.9312 260.928 79.6512 260.979 79.3899 261.082C79.1286 261.175 78.8999 261.315 78.7039 261.502C78.5172 261.679 78.3679 261.899 78.2559 262.16C78.1439 262.421 78.0879 262.711 78.0879 263.028C78.0879 263.355 78.1439 263.649 78.2559 263.91C78.3679 264.162 78.5172 264.381 78.7039 264.568C78.8999 264.745 79.1286 264.885 79.3899 264.988C79.6512 265.081 79.9312 265.128 80.2299 265.128Z" fill="black"/>
<path d="M143.7 268.656L147.438 265.016C147.671 264.792 147.877 264.587 148.054 264.4C148.231 264.204 148.376 264.017 148.488 263.84C148.609 263.653 148.698 263.462 148.754 263.266C148.81 263.07 148.838 262.851 148.838 262.608C148.838 262.347 148.791 262.113 148.698 261.908C148.605 261.703 148.474 261.53 148.306 261.39C148.147 261.241 147.956 261.129 147.732 261.054C147.517 260.97 147.284 260.928 147.032 260.928C146.528 260.928 146.113 261.073 145.786 261.362C145.459 261.651 145.249 262.034 145.156 262.51L143.882 262.398C143.947 261.997 144.069 261.642 144.246 261.334C144.433 261.017 144.661 260.755 144.932 260.55C145.212 260.345 145.525 260.191 145.87 260.088C146.215 259.976 146.589 259.92 146.99 259.92C147.401 259.92 147.788 259.981 148.152 260.102C148.516 260.214 148.833 260.382 149.104 260.606C149.384 260.83 149.603 261.11 149.762 261.446C149.93 261.782 150.014 262.169 150.014 262.608C150.014 263 149.958 263.355 149.846 263.672C149.743 263.989 149.599 264.283 149.412 264.554C149.235 264.815 149.029 265.067 148.796 265.31C148.572 265.543 148.334 265.777 148.082 266.01L145.03 268.88V268.908H150.084V270H143.7V268.656ZM151.311 265.044C151.311 264.484 151.358 263.901 151.451 263.294C151.545 262.687 151.717 262.137 151.969 261.642C152.221 261.138 152.562 260.727 152.991 260.41C153.43 260.083 153.99 259.92 154.671 259.92C155.353 259.92 155.908 260.083 156.337 260.41C156.776 260.727 157.121 261.138 157.373 261.642C157.625 262.137 157.798 262.687 157.891 263.294C157.985 263.901 158.031 264.484 158.031 265.044C158.031 265.604 157.985 266.187 157.891 266.794C157.798 267.401 157.625 267.956 157.373 268.46C157.121 268.955 156.776 269.365 156.337 269.692C155.908 270.009 155.353 270.168 154.671 270.168C153.99 270.168 153.43 270.009 152.991 269.692C152.562 269.365 152.221 268.955 151.969 268.46C151.717 267.956 151.545 267.401 151.451 266.794C151.358 266.187 151.311 265.604 151.311 265.044ZM152.487 265.044C152.487 265.287 152.497 265.557 152.515 265.856C152.534 266.155 152.567 266.458 152.613 266.766C152.669 267.065 152.744 267.359 152.837 267.648C152.94 267.937 153.071 268.194 153.229 268.418C153.397 268.642 153.598 268.824 153.831 268.964C154.065 269.095 154.345 269.16 154.671 269.16C154.998 269.16 155.278 269.095 155.511 268.964C155.745 268.824 155.941 268.642 156.099 268.418C156.267 268.194 156.398 267.937 156.491 267.648C156.594 267.359 156.669 267.065 156.715 266.766C156.771 266.458 156.809 266.155 156.827 265.856C156.846 265.557 156.855 265.287 156.855 265.044C156.855 264.801 156.846 264.531 156.827 264.232C156.809 263.933 156.771 263.635 156.715 263.336C156.669 263.028 156.594 262.729 156.491 262.44C156.398 262.151 156.267 261.894 156.099 261.67C155.941 261.446 155.745 261.269 155.511 261.138C155.278 260.998 154.998 260.928 154.671 260.928C154.345 260.928 154.065 260.998 153.831 261.138C153.598 261.269 153.397 261.446 153.229 261.67C153.071 261.894 152.94 262.151 152.837 262.44C152.744 262.729 152.669 263.028 152.613 263.336C152.567 263.635 152.534 263.933 152.515 264.232C152.497 264.531 152.487 264.801 152.487 265.044ZM159.259 268.656L162.997 265.016C163.23 264.792 163.435 264.587 163.613 264.4C163.79 264.204 163.935 264.017 164.047 263.84C164.168 263.653 164.257 263.462 164.313 263.266C164.369 263.07 164.397 262.851 164.397 262.608C164.397 262.347 164.35 262.113 164.257 261.908C164.163 261.703 164.033 261.53 163.865 261.39C163.706 261.241 163.515 261.129 163.291 261.054C163.076 260.97 162.843 260.928 162.591 260.928C162.087 260.928 161.671 261.073 161.345 261.362C161.018 261.651 160.808 262.034 160.715 262.51L159.441 262.398C159.506 261.997 159.627 261.642 159.805 261.334C159.991 261.017 160.22 260.755 160.491 260.55C160.771 260.345 161.083 260.191 161.429 260.088C161.774 259.976 162.147 259.92 162.549 259.92C162.959 259.92 163.347 259.981 163.711 260.102C164.075 260.214 164.392 260.382 164.663 260.606C164.943 260.83 165.162 261.11 165.321 261.446C165.489 261.782 165.573 262.169 165.573 262.608C165.573 263 165.517 263.355 165.405 263.672C165.302 263.989 165.157 264.283 164.971 264.554C164.793 264.815 164.588 265.067 164.355 265.31C164.131 265.543 163.893 265.777 163.641 266.01L160.589 268.88V268.908H165.643V270H159.259V268.656ZM166.87 265.044C166.87 264.484 166.917 263.901 167.01 263.294C167.103 262.687 167.276 262.137 167.528 261.642C167.78 261.138 168.121 260.727 168.55 260.41C168.989 260.083 169.549 259.92 170.23 259.92C170.911 259.92 171.467 260.083 171.896 260.41C172.335 260.727 172.68 261.138 172.932 261.642C173.184 262.137 173.357 262.687 173.45 263.294C173.543 263.901 173.59 264.484 173.59 265.044C173.59 265.604 173.543 266.187 173.45 266.794C173.357 267.401 173.184 267.956 172.932 268.46C172.68 268.955 172.335 269.365 171.896 269.692C171.467 270.009 170.911 270.168 170.23 270.168C169.549 270.168 168.989 270.009 168.55 269.692C168.121 269.365 167.78 268.955 167.528 268.46C167.276 267.956 167.103 267.401 167.01 266.794C166.917 266.187 166.87 265.604 166.87 265.044ZM168.046 265.044C168.046 265.287 168.055 265.557 168.074 265.856C168.093 266.155 168.125 266.458 168.172 266.766C168.228 267.065 168.303 267.359 168.396 267.648C168.499 267.937 168.629 268.194 168.788 268.418C168.956 268.642 169.157 268.824 169.39 268.964C169.623 269.095 169.903 269.16 170.23 269.16C170.557 269.16 170.837 269.095 171.07 268.964C171.303 268.824 171.499 268.642 171.658 268.418C171.826 268.194 171.957 267.937 172.05 267.648C172.153 267.359 172.227 267.065 172.274 266.766C172.33 266.458 172.367 266.155 172.386 265.856C172.405 265.557 172.414 265.287 172.414 265.044C172.414 264.801 172.405 264.531 172.386 264.232C172.367 263.933 172.33 263.635 172.274 263.336C172.227 263.028 172.153 262.729 172.05 262.44C171.957 262.151 171.826 261.894 171.658 261.67C171.499 261.446 171.303 261.269 171.07 261.138C170.837 260.998 170.557 260.928 170.23 260.928C169.903 260.928 169.623 260.998 169.39 261.138C169.157 261.269 168.956 261.446 168.788 261.67C168.629 261.894 168.499 262.151 168.396 262.44C168.303 262.729 168.228 263.028 168.172 263.336C168.125 263.635 168.093 263.933 168.074 264.232C168.055 264.531 168.046 264.801 168.046 265.044Z" fill="black"/>
<path d="M233.7 268.656L237.438 265.016C237.671 264.792 237.877 264.587 238.054 264.4C238.231 264.204 238.376 264.017 238.488 263.84C238.609 263.653 238.698 263.462 238.754 263.266C238.81 263.07 238.838 262.851 238.838 262.608C238.838 262.347 238.791 262.113 238.698 261.908C238.605 261.703 238.474 261.53 238.306 261.39C238.147 261.241 237.956 261.129 237.732 261.054C237.517 260.97 237.284 260.928 237.032 260.928C236.528 260.928 236.113 261.073 235.786 261.362C235.459 261.651 235.249 262.034 235.156 262.51L233.882 262.398C233.947 261.997 234.069 261.642 234.246 261.334C234.433 261.017 234.661 260.755 234.932 260.55C235.212 260.345 235.525 260.191 235.87 260.088C236.215 259.976 236.589 259.92 236.99 259.92C237.401 259.92 237.788 259.981 238.152 260.102C238.516 260.214 238.833 260.382 239.104 260.606C239.384 260.83 239.603 261.11 239.762 261.446C239.93 261.782 240.014 262.169 240.014 262.608C240.014 263 239.958 263.355 239.846 263.672C239.743 263.989 239.599 264.283 239.412 264.554C239.235 264.815 239.029 265.067 238.796 265.31C238.572 265.543 238.334 265.777 238.082 266.01L235.03 268.88V268.908H240.084V270H233.7V268.656ZM241.311 265.044C241.311 264.484 241.358 263.901 241.451 263.294C241.545 262.687 241.717 262.137 241.969 261.642C242.221 261.138 242.562 260.727 242.991 260.41C243.43 260.083 243.99 259.92 244.671 259.92C245.353 259.92 245.908 260.083 246.337 260.41C246.776 260.727 247.121 261.138 247.373 261.642C247.625 262.137 247.798 262.687 247.891 263.294C247.985 263.901 248.031 264.484 248.031 265.044C248.031 265.604 247.985 266.187 247.891 266.794C247.798 267.401 247.625 267.956 247.373 268.46C247.121 268.955 246.776 269.365 246.337 269.692C245.908 270.009 245.353 270.168 244.671 270.168C243.99 270.168 243.43 270.009 242.991 269.692C242.562 269.365 242.221 268.955 241.969 268.46C241.717 267.956 241.545 267.401 241.451 266.794C241.358 266.187 241.311 265.604 241.311 265.044ZM242.487 265.044C242.487 265.287 242.497 265.557 242.515 265.856C242.534 266.155 242.567 266.458 242.613 266.766C242.669 267.065 242.744 267.359 242.837 267.648C242.94 267.937 243.071 268.194 243.229 268.418C243.397 268.642 243.598 268.824 243.831 268.964C244.065 269.095 244.345 269.16 244.671 269.16C244.998 269.16 245.278 269.095 245.511 268.964C245.745 268.824 245.941 268.642 246.099 268.418C246.267 268.194 246.398 267.937 246.491 267.648C246.594 267.359 246.669 267.065 246.715 266.766C246.771 266.458 246.809 266.155 246.827 265.856C246.846 265.557 246.855 265.287 246.855 265.044C246.855 264.801 246.846 264.531 246.827 264.232C246.809 263.933 246.771 263.635 246.715 263.336C246.669 263.028 246.594 262.729 246.491 262.44C246.398 262.151 246.267 261.894 246.099 261.67C245.941 261.446 245.745 261.269 245.511 261.138C245.278 260.998 244.998 260.928 244.671 260.928C244.345 260.928 244.065 260.998 243.831 261.138C243.598 261.269 243.397 261.446 243.229 261.67C243.071 261.894 242.94 262.151 242.837 262.44C242.744 262.729 242.669 263.028 242.613 263.336C242.567 263.635 242.534 263.933 242.515 264.232C242.497 264.531 242.487 264.801 242.487 265.044ZM249.259 268.656L252.997 265.016C253.23 264.792 253.435 264.587 253.613 264.4C253.79 264.204 253.935 264.017 254.047 263.84C254.168 263.653 254.257 263.462 254.313 263.266C254.369 263.07 254.397 262.851 254.397 262.608C254.397 262.347 254.35 262.113 254.257 261.908C254.163 261.703 254.033 261.53 253.865 261.39C253.706 261.241 253.515 261.129 253.291 261.054C253.076 260.97 252.843 260.928 252.591 260.928C252.087 260.928 251.671 261.073 251.345 261.362C251.018 261.651 250.808 262.034 250.715 262.51L249.441 262.398C249.506 261.997 249.627 261.642 249.805 261.334C249.991 261.017 250.22 260.755 250.491 260.55C250.771 260.345 251.083 260.191 251.429 260.088C251.774 259.976 252.147 259.92 252.549 259.92C252.959 259.92 253.347 259.981 253.711 260.102C254.075 260.214 254.392 260.382 254.663 260.606C254.943 260.83 255.162 261.11 255.321 261.446C255.489 261.782 255.573 262.169 255.573 262.608C255.573 263 255.517 263.355 255.405 263.672C255.302 263.989 255.157 264.283 254.971 264.554C254.793 264.815 254.588 265.067 254.355 265.31C254.131 265.543 253.893 265.777 253.641 266.01L250.589 268.88V268.908H255.643V270H249.259V268.656ZM261.378 270H260.202V261.6H260.174L258.396 263.098L257.696 262.244L260.356 260.088H261.378V270Z" fill="black"/>
<path d="M323.7 268.656L327.438 265.016C327.671 264.792 327.877 264.587 328.054 264.4C328.231 264.204 328.376 264.017 328.488 263.84C328.609 263.653 328.698 263.462 328.754 263.266C328.81 263.07 328.838 262.851 328.838 262.608C328.838 262.347 328.791 262.113 328.698 261.908C328.605 261.703 328.474 261.53 328.306 261.39C328.147 261.241 327.956 261.129 327.732 261.054C327.517 260.97 327.284 260.928 327.032 260.928C326.528 260.928 326.113 261.073 325.786 261.362C325.459 261.651 325.249 262.034 325.156 262.51L323.882 262.398C323.947 261.997 324.069 261.642 324.246 261.334C324.433 261.017 324.661 260.755 324.932 260.55C325.212 260.345 325.525 260.191 325.87 260.088C326.215 259.976 326.589 259.92 326.99 259.92C327.401 259.92 327.788 259.981 328.152 260.102C328.516 260.214 328.833 260.382 329.104 260.606C329.384 260.83 329.603 261.11 329.762 261.446C329.93 261.782 330.014 262.169 330.014 262.608C330.014 263 329.958 263.355 329.846 263.672C329.743 263.989 329.599 264.283 329.412 264.554C329.235 264.815 329.029 265.067 328.796 265.31C328.572 265.543 328.334 265.777 328.082 266.01L325.03 268.88V268.908H330.084V270H323.7V268.656ZM331.311 265.044C331.311 264.484 331.358 263.901 331.451 263.294C331.545 262.687 331.717 262.137 331.969 261.642C332.221 261.138 332.562 260.727 332.991 260.41C333.43 260.083 333.99 259.92 334.671 259.92C335.353 259.92 335.908 260.083 336.337 260.41C336.776 260.727 337.121 261.138 337.373 261.642C337.625 262.137 337.798 262.687 337.891 263.294C337.985 263.901 338.031 264.484 338.031 265.044C338.031 265.604 337.985 266.187 337.891 266.794C337.798 267.401 337.625 267.956 337.373 268.46C337.121 268.955 336.776 269.365 336.337 269.692C335.908 270.009 335.353 270.168 334.671 270.168C333.99 270.168 333.43 270.009 332.991 269.692C332.562 269.365 332.221 268.955 331.969 268.46C331.717 267.956 331.545 267.401 331.451 266.794C331.358 266.187 331.311 265.604 331.311 265.044ZM332.487 265.044C332.487 265.287 332.497 265.557 332.515 265.856C332.534 266.155 332.567 266.458 332.613 266.766C332.669 267.065 332.744 267.359 332.837 267.648C332.94 267.937 333.071 268.194 333.229 268.418C333.397 268.642 333.598 268.824 333.831 268.964C334.065 269.095 334.345 269.16 334.671 269.16C334.998 269.16 335.278 269.095 335.511 268.964C335.745 268.824 335.941 268.642 336.099 268.418C336.267 268.194 336.398 267.937 336.491 267.648C336.594 267.359 336.669 267.065 336.715 266.766C336.771 266.458 336.809 266.155 336.827 265.856C336.846 265.557 336.855 265.287 336.855 265.044C336.855 264.801 336.846 264.531 336.827 264.232C336.809 263.933 336.771 263.635 336.715 263.336C336.669 263.028 336.594 262.729 336.491 262.44C336.398 262.151 336.267 261.894 336.099 261.67C335.941 261.446 335.745 261.269 335.511 261.138C335.278 260.998 334.998 260.928 334.671 260.928C334.345 260.928 334.065 260.998 333.831 261.138C333.598 261.269 333.397 261.446 333.229 261.67C333.071 261.894 332.94 262.151 332.837 262.44C332.744 262.729 332.669 263.028 332.613 263.336C332.567 263.635 332.534 263.933 332.515 264.232C332.497 264.531 332.487 264.801 332.487 265.044ZM339.259 268.656L342.997 265.016C343.23 264.792 343.435 264.587 343.613 264.4C343.79 264.204 343.935 264.017 344.047 263.84C344.168 263.653 344.257 263.462 344.313 263.266C344.369 263.07 344.397 262.851 344.397 262.608C344.397 262.347 344.35 262.113 344.257 261.908C344.163 261.703 344.033 261.53 343.865 261.39C343.706 261.241 343.515 261.129 343.291 261.054C343.076 260.97 342.843 260.928 342.591 260.928C342.087 260.928 341.671 261.073 341.345 261.362C341.018 261.651 340.808 262.034 340.715 262.51L339.441 262.398C339.506 261.997 339.627 261.642 339.805 261.334C339.991 261.017 340.22 260.755 340.491 260.55C340.771 260.345 341.083 260.191 341.429 260.088C341.774 259.976 342.147 259.92 342.549 259.92C342.959 259.92 343.347 259.981 343.711 260.102C344.075 260.214 344.392 260.382 344.663 260.606C344.943 260.83 345.162 261.11 345.321 261.446C345.489 261.782 345.573 262.169 345.573 262.608C345.573 263 345.517 263.355 345.405 263.672C345.302 263.989 345.157 264.283 344.971 264.554C344.793 264.815 344.588 265.067 344.355 265.31C344.131 265.543 343.893 265.777 343.641 266.01L340.589 268.88V268.908H345.643V270H339.259V268.656ZM347.038 268.656L350.776 265.016C351.009 264.792 351.215 264.587 351.392 264.4C351.569 264.204 351.714 264.017 351.826 263.84C351.947 263.653 352.036 263.462 352.092 263.266C352.148 263.07 352.176 262.851 352.176 262.608C352.176 262.347 352.129 262.113 352.036 261.908C351.943 261.703 351.812 261.53 351.644 261.39C351.485 261.241 351.294 261.129 351.07 261.054C350.855 260.97 350.622 260.928 350.37 260.928C349.866 260.928 349.451 261.073 349.124 261.362C348.797 261.651 348.587 262.034 348.494 262.51L347.22 262.398C347.285 261.997 347.407 261.642 347.584 261.334C347.771 261.017 347.999 260.755 348.27 260.55C348.55 260.345 348.863 260.191 349.208 260.088C349.553 259.976 349.927 259.92 350.328 259.92C350.739 259.92 351.126 259.981 351.49 260.102C351.854 260.214 352.171 260.382 352.442 260.606C352.722 260.83 352.941 261.11 353.1 261.446C353.268 261.782 353.352 262.169 353.352 262.608C353.352 263 353.296 263.355 353.184 263.672C353.081 263.989 352.937 264.283 352.75 264.554C352.573 264.815 352.367 265.067 352.134 265.31C351.91 265.543 351.672 265.777 351.42 266.01L348.368 268.88V268.908H353.422V270H347.038V268.656Z" fill="black"/>
<line x1="56.5" y1="60" x2="56.5" y2="247" stroke="black"/>
<line x1="355" y1="247.5" x2="56" y2="247.5" stroke="black"/>
<path d="M71.5 231.5L163.5 216L318 64.5" stroke="black" stroke-width="2"/>
<path d="M260.346 202.348H257.154V201.088H264.882V202.348H261.69V211H260.346V202.348ZM264.46 205.176C264.815 204.849 265.226 204.607 265.692 204.448C266.159 204.28 266.626 204.196 267.092 204.196C267.578 204.196 267.993 204.257 268.338 204.378C268.693 204.499 268.982 204.663 269.206 204.868C269.43 205.073 269.594 205.311 269.696 205.582C269.808 205.843 269.864 206.119 269.864 206.408V209.796C269.864 210.029 269.869 210.244 269.878 210.44C269.888 210.636 269.902 210.823 269.92 211H268.8C268.772 210.664 268.758 210.328 268.758 209.992H268.73C268.45 210.421 268.119 210.725 267.736 210.902C267.354 211.079 266.91 211.168 266.406 211.168C266.098 211.168 265.804 211.126 265.524 211.042C265.244 210.958 264.997 210.832 264.782 210.664C264.577 210.496 264.414 210.291 264.292 210.048C264.171 209.796 264.11 209.507 264.11 209.18C264.11 208.751 264.204 208.391 264.39 208.102C264.586 207.813 264.848 207.579 265.174 207.402C265.51 207.215 265.898 207.085 266.336 207.01C266.784 206.926 267.26 206.884 267.764 206.884H268.688V206.604C268.688 206.436 268.656 206.268 268.59 206.1C268.525 205.932 268.427 205.783 268.296 205.652C268.166 205.512 268.002 205.405 267.806 205.33C267.61 205.246 267.377 205.204 267.106 205.204C266.864 205.204 266.649 205.227 266.462 205.274C266.285 205.321 266.122 205.381 265.972 205.456C265.823 205.521 265.688 205.601 265.566 205.694C265.445 205.787 265.328 205.876 265.216 205.96L264.46 205.176ZM268.016 207.808C267.718 207.808 267.41 207.827 267.092 207.864C266.784 207.892 266.5 207.953 266.238 208.046C265.986 208.139 265.776 208.27 265.608 208.438C265.45 208.606 265.37 208.821 265.37 209.082C265.37 209.465 265.496 209.74 265.748 209.908C266.01 210.076 266.36 210.16 266.798 210.16C267.144 210.16 267.438 210.104 267.68 209.992C267.923 209.871 268.119 209.717 268.268 209.53C268.418 209.343 268.525 209.138 268.59 208.914C268.656 208.681 268.688 208.452 268.688 208.228V207.808H268.016ZM270.894 204.364H272.35L274.324 209.544H274.352L276.228 204.364H277.586L274.436 212.428C274.324 212.717 274.208 212.979 274.086 213.212C273.965 213.455 273.82 213.66 273.652 213.828C273.484 213.996 273.279 214.127 273.036 214.22C272.803 214.313 272.514 214.36 272.168 214.36C271.982 214.36 271.79 214.346 271.594 214.318C271.408 214.299 271.226 214.253 271.048 214.178L271.202 213.03C271.454 213.133 271.706 213.184 271.958 213.184C272.154 213.184 272.318 213.156 272.448 213.1C272.588 213.053 272.705 212.979 272.798 212.876C272.901 212.783 272.985 212.671 273.05 212.54C273.116 212.409 273.181 212.26 273.246 212.092L273.652 211.042L270.894 204.364ZM278.79 200.416H280.05V211H278.79V200.416ZM283.078 207.682C283.078 208.018 283.129 208.331 283.232 208.62C283.334 208.9 283.479 209.143 283.666 209.348C283.852 209.544 284.081 209.703 284.352 209.824C284.622 209.936 284.926 209.992 285.262 209.992C285.598 209.992 285.901 209.936 286.172 209.824C286.442 209.703 286.671 209.544 286.858 209.348C287.044 209.143 287.189 208.9 287.292 208.62C287.394 208.331 287.446 208.018 287.446 207.682C287.446 207.346 287.394 207.038 287.292 206.758C287.189 206.469 287.044 206.226 286.858 206.03C286.671 205.825 286.442 205.666 286.172 205.554C285.901 205.433 285.598 205.372 285.262 205.372C284.926 205.372 284.622 205.433 284.352 205.554C284.081 205.666 283.852 205.825 283.666 206.03C283.479 206.226 283.334 206.469 283.232 206.758C283.129 207.038 283.078 207.346 283.078 207.682ZM281.734 207.682C281.734 207.197 281.822 206.744 282 206.324C282.186 205.904 282.438 205.535 282.756 205.218C283.073 204.901 283.446 204.653 283.876 204.476C284.305 204.289 284.767 204.196 285.262 204.196C285.756 204.196 286.218 204.289 286.648 204.476C287.077 204.653 287.45 204.901 287.768 205.218C288.085 205.535 288.332 205.904 288.51 206.324C288.696 206.744 288.79 207.197 288.79 207.682C288.79 208.167 288.696 208.625 288.51 209.054C288.332 209.474 288.085 209.843 287.768 210.16C287.45 210.468 287.077 210.715 286.648 210.902C286.218 211.079 285.756 211.168 285.262 211.168C284.767 211.168 284.305 211.079 283.876 210.902C283.446 210.715 283.073 210.468 282.756 210.16C282.438 209.843 282.186 209.474 282 209.054C281.822 208.625 281.734 208.167 281.734 207.682ZM290.368 204.364H291.628V205.386H291.656C291.74 205.209 291.852 205.05 291.992 204.91C292.132 204.761 292.286 204.635 292.454 204.532C292.631 204.429 292.823 204.35 293.028 204.294C293.233 204.229 293.439 204.196 293.644 204.196C293.849 204.196 294.036 204.224 294.204 204.28L294.148 205.638C294.045 205.61 293.943 205.587 293.84 205.568C293.737 205.549 293.635 205.54 293.532 205.54C292.916 205.54 292.445 205.713 292.118 206.058C291.791 206.403 291.628 206.94 291.628 207.668V211H290.368V204.364ZM299.446 200.416H300.706V205.386H300.734C300.893 205.031 301.168 204.747 301.56 204.532C301.952 204.308 302.405 204.196 302.918 204.196C303.235 204.196 303.539 204.247 303.828 204.35C304.127 204.443 304.383 204.593 304.598 204.798C304.822 205.003 304.999 205.269 305.13 205.596C305.261 205.913 305.326 206.291 305.326 206.73V211H304.066V207.08C304.066 206.772 304.024 206.511 303.94 206.296C303.856 206.072 303.744 205.895 303.604 205.764C303.464 205.624 303.301 205.526 303.114 205.47C302.937 205.405 302.75 205.372 302.554 205.372C302.293 205.372 302.05 205.414 301.826 205.498C301.602 205.582 301.406 205.717 301.238 205.904C301.07 206.081 300.939 206.31 300.846 206.59C300.753 206.87 300.706 207.201 300.706 207.584V211H299.446V200.416ZM307.323 204.364H308.583V211H307.323V204.364ZM307.029 201.984C307.029 201.732 307.118 201.517 307.295 201.34C307.482 201.153 307.701 201.06 307.953 201.06C308.205 201.06 308.42 201.153 308.597 201.34C308.784 201.517 308.877 201.732 308.877 201.984C308.877 202.236 308.784 202.455 308.597 202.642C308.42 202.819 308.205 202.908 307.953 202.908C307.701 202.908 307.482 202.819 307.295 202.642C307.118 202.455 307.029 202.236 307.029 201.984ZM310.589 204.364H311.849V205.386H311.877C311.961 205.209 312.073 205.05 312.213 204.91C312.353 204.761 312.507 204.635 312.675 204.532C312.852 204.429 313.043 204.35 313.249 204.294C313.454 204.229 313.659 204.196 313.865 204.196C314.07 204.196 314.257 204.224 314.425 204.28L314.369 205.638C314.266 205.61 314.163 205.587 314.061 205.568C313.958 205.549 313.855 205.54 313.753 205.54C313.137 205.54 312.665 205.713 312.339 206.058C312.012 206.403 311.849 206.94 311.849 207.668V211H310.589V204.364ZM316.476 208.144C316.476 208.433 316.537 208.699 316.658 208.942C316.789 209.175 316.957 209.376 317.162 209.544C317.368 209.712 317.606 209.843 317.876 209.936C318.147 210.029 318.427 210.076 318.716 210.076C319.108 210.076 319.449 209.987 319.738 209.81C320.028 209.623 320.294 209.381 320.536 209.082L321.488 209.81C320.788 210.715 319.808 211.168 318.548 211.168C318.026 211.168 317.55 211.079 317.12 210.902C316.7 210.725 316.341 210.482 316.042 210.174C315.753 209.857 315.529 209.488 315.37 209.068C315.212 208.639 315.132 208.177 315.132 207.682C315.132 207.187 315.216 206.73 315.384 206.31C315.562 205.881 315.8 205.512 316.098 205.204C316.406 204.887 316.77 204.639 317.19 204.462C317.61 204.285 318.068 204.196 318.562 204.196C319.15 204.196 319.645 204.299 320.046 204.504C320.457 204.709 320.793 204.98 321.054 205.316C321.316 205.643 321.502 206.016 321.614 206.436C321.736 206.847 321.796 207.267 321.796 207.696V208.144H316.476ZM320.452 207.136C320.443 206.856 320.396 206.599 320.312 206.366C320.238 206.133 320.121 205.932 319.962 205.764C319.804 205.587 319.603 205.451 319.36 205.358C319.127 205.255 318.852 205.204 318.534 205.204C318.226 205.204 317.942 205.265 317.68 205.386C317.428 205.498 317.214 205.647 317.036 205.834C316.859 206.021 316.719 206.231 316.616 206.464C316.523 206.688 316.476 206.912 316.476 207.136H320.452ZM329.954 211H328.694V210.048H328.666C328.423 210.403 328.087 210.678 327.658 210.874C327.238 211.07 326.804 211.168 326.356 211.168C325.842 211.168 325.376 211.079 324.956 210.902C324.545 210.725 324.19 210.477 323.892 210.16C323.602 209.843 323.378 209.474 323.22 209.054C323.061 208.634 322.982 208.177 322.982 207.682C322.982 207.187 323.061 206.73 323.22 206.31C323.378 205.881 323.602 205.512 323.892 205.204C324.19 204.887 324.545 204.639 324.956 204.462C325.376 204.285 325.842 204.196 326.356 204.196C326.832 204.196 327.28 204.299 327.7 204.504C328.12 204.7 328.442 204.971 328.666 205.316H328.694V200.416H329.954V211ZM326.51 209.992C326.846 209.992 327.149 209.936 327.42 209.824C327.69 209.703 327.919 209.544 328.106 209.348C328.292 209.143 328.437 208.9 328.54 208.62C328.642 208.331 328.694 208.018 328.694 207.682C328.694 207.346 328.642 207.038 328.54 206.758C328.437 206.469 328.292 206.226 328.106 206.03C327.919 205.825 327.69 205.666 327.42 205.554C327.149 205.433 326.846 205.372 326.51 205.372C326.174 205.372 325.87 205.433 325.6 205.554C325.329 205.666 325.1 205.825 324.914 206.03C324.727 206.226 324.582 206.469 324.48 206.758C324.377 207.038 324.326 207.346 324.326 207.682C324.326 208.018 324.377 208.331 324.48 208.62C324.582 208.9 324.727 209.143 324.914 209.348C325.1 209.544 325.329 209.703 325.6 209.824C325.87 209.936 326.174 209.992 326.51 209.992ZM336.781 207.682C336.781 208.018 336.832 208.331 336.935 208.62C337.037 208.9 337.182 209.143 337.369 209.348C337.555 209.544 337.784 209.703 338.055 209.824C338.325 209.936 338.629 209.992 338.965 209.992C339.301 209.992 339.604 209.936 339.875 209.824C340.145 209.703 340.374 209.544 340.561 209.348C340.747 209.143 340.892 208.9 340.995 208.62C341.097 208.331 341.149 208.018 341.149 207.682C341.149 207.346 341.097 207.038 340.995 206.758C340.892 206.469 340.747 206.226 340.561 206.03C340.374 205.825 340.145 205.666 339.875 205.554C339.604 205.433 339.301 205.372 338.965 205.372C338.629 205.372 338.325 205.433 338.055 205.554C337.784 205.666 337.555 205.825 337.369 206.03C337.182 206.226 337.037 206.469 336.935 206.758C336.832 207.038 336.781 207.346 336.781 207.682ZM335.437 207.682C335.437 207.197 335.525 206.744 335.703 206.324C335.889 205.904 336.141 205.535 336.459 205.218C336.776 204.901 337.149 204.653 337.579 204.476C338.008 204.289 338.47 204.196 338.965 204.196C339.459 204.196 339.921 204.289 340.351 204.476C340.78 204.653 341.153 204.901 341.471 205.218C341.788 205.535 342.035 205.904 342.213 206.324C342.399 206.744 342.493 207.197 342.493 207.682C342.493 208.167 342.399 208.625 342.213 209.054C342.035 209.474 341.788 209.843 341.471 210.16C341.153 210.468 340.78 210.715 340.351 210.902C339.921 211.079 339.459 211.168 338.965 211.168C338.47 211.168 338.008 211.079 337.579 210.902C337.149 210.715 336.776 210.468 336.459 210.16C336.141 209.843 335.889 209.474 335.703 209.054C335.525 208.625 335.437 208.167 335.437 207.682ZM344.071 204.364H345.331V205.386H345.359C345.518 205.031 345.793 204.747 346.185 204.532C346.577 204.308 347.03 204.196 347.543 204.196C347.86 204.196 348.164 204.247 348.453 204.35C348.752 204.443 349.008 204.593 349.223 204.798C349.447 205.003 349.624 205.269 349.755 205.596C349.886 205.913 349.951 206.291 349.951 206.73V211H348.691V207.08C348.691 206.772 348.649 206.511 348.565 206.296C348.481 206.072 348.369 205.895 348.229 205.764C348.089 205.624 347.926 205.526 347.739 205.47C347.562 205.405 347.375 205.372 347.179 205.372C346.918 205.372 346.675 205.414 346.451 205.498C346.227 205.582 346.031 205.717 345.863 205.904C345.695 206.081 345.564 206.31 345.471 206.59C345.378 206.87 345.331 207.201 345.331 207.584V211H344.071V204.364ZM266.716 223.456V228.342C266.473 228.491 266.198 228.622 265.89 228.734C265.582 228.846 265.26 228.939 264.924 229.014C264.597 229.098 264.261 229.159 263.916 229.196C263.58 229.233 263.263 229.252 262.964 229.252C262.124 229.252 261.373 229.112 260.71 228.832C260.057 228.552 259.501 228.174 259.044 227.698C258.596 227.222 258.251 226.671 258.008 226.046C257.775 225.411 257.658 224.744 257.658 224.044C257.658 223.307 257.784 222.621 258.036 221.986C258.297 221.351 258.652 220.801 259.1 220.334C259.557 219.867 260.103 219.503 260.738 219.242C261.373 218.971 262.068 218.836 262.824 218.836C263.739 218.836 264.485 218.953 265.064 219.186C265.643 219.41 266.128 219.723 266.52 220.124L265.568 221.146C265.157 220.754 264.723 220.483 264.266 220.334C263.809 220.175 263.328 220.096 262.824 220.096C262.255 220.096 261.741 220.203 261.284 220.418C260.827 220.623 260.435 220.903 260.108 221.258C259.781 221.613 259.529 222.033 259.352 222.518C259.175 222.994 259.086 223.503 259.086 224.044C259.086 224.604 259.184 225.127 259.38 225.612C259.576 226.088 259.847 226.503 260.192 226.858C260.537 227.213 260.943 227.493 261.41 227.698C261.877 227.894 262.385 227.992 262.936 227.992C263.412 227.992 263.86 227.95 264.28 227.866C264.709 227.773 265.073 227.642 265.372 227.474V224.716H263.174V223.456H266.716ZM268.848 222.364H270.108V223.386H270.136C270.22 223.209 270.332 223.05 270.472 222.91C270.612 222.761 270.766 222.635 270.934 222.532C271.112 222.429 271.303 222.35 271.508 222.294C271.714 222.229 271.919 222.196 272.124 222.196C272.33 222.196 272.516 222.224 272.684 222.28L272.628 223.638C272.526 223.61 272.423 223.587 272.32 223.568C272.218 223.549 272.115 223.54 272.012 223.54C271.396 223.54 270.925 223.713 270.598 224.058C270.272 224.403 270.108 224.94 270.108 225.668V229H268.848V222.364ZM274.806 225.682C274.806 226.018 274.857 226.331 274.96 226.62C275.063 226.9 275.207 227.143 275.394 227.348C275.581 227.544 275.809 227.703 276.08 227.824C276.351 227.936 276.654 227.992 276.99 227.992C277.326 227.992 277.629 227.936 277.9 227.824C278.171 227.703 278.399 227.544 278.586 227.348C278.773 227.143 278.917 226.9 279.02 226.62C279.123 226.331 279.174 226.018 279.174 225.682C279.174 225.346 279.123 225.038 279.02 224.758C278.917 224.469 278.773 224.226 278.586 224.03C278.399 223.825 278.171 223.666 277.9 223.554C277.629 223.433 277.326 223.372 276.99 223.372C276.654 223.372 276.351 223.433 276.08 223.554C275.809 223.666 275.581 223.825 275.394 224.03C275.207 224.226 275.063 224.469 274.96 224.758C274.857 225.038 274.806 225.346 274.806 225.682ZM273.462 225.682C273.462 225.197 273.551 224.744 273.728 224.324C273.915 223.904 274.167 223.535 274.484 223.218C274.801 222.901 275.175 222.653 275.604 222.476C276.033 222.289 276.495 222.196 276.99 222.196C277.485 222.196 277.947 222.289 278.376 222.476C278.805 222.653 279.179 222.901 279.496 223.218C279.813 223.535 280.061 223.904 280.238 224.324C280.425 224.744 280.518 225.197 280.518 225.682C280.518 226.167 280.425 226.625 280.238 227.054C280.061 227.474 279.813 227.843 279.496 228.16C279.179 228.468 278.805 228.715 278.376 228.902C277.947 229.079 277.485 229.168 276.99 229.168C276.495 229.168 276.033 229.079 275.604 228.902C275.175 228.715 274.801 228.468 274.484 228.16C274.167 227.843 273.915 227.474 273.728 227.054C273.551 226.625 273.462 226.167 273.462 225.682ZM281.299 222.364H282.713L284.211 227.32H284.239L285.821 222.364H287.151L288.831 227.32H288.859L290.287 222.364H291.617L289.475 229H288.201L286.451 224.044H286.423L284.841 229H283.483L281.299 222.364ZM296.276 223.456H294.47V226.466C294.47 226.653 294.474 226.839 294.484 227.026C294.493 227.203 294.526 227.367 294.582 227.516C294.647 227.656 294.74 227.773 294.862 227.866C294.992 227.95 295.179 227.992 295.422 227.992C295.571 227.992 295.725 227.978 295.884 227.95C296.042 227.922 296.187 227.871 296.318 227.796V228.944C296.168 229.028 295.972 229.084 295.73 229.112C295.496 229.149 295.314 229.168 295.184 229.168C294.698 229.168 294.32 229.103 294.05 228.972C293.788 228.832 293.592 228.655 293.462 228.44C293.34 228.225 293.266 227.987 293.238 227.726C293.219 227.455 293.21 227.185 293.21 226.914V223.456H291.754V222.364H293.21V220.502H294.47V222.364H296.276V223.456ZM297.901 218.416H299.161V223.386H299.189C299.348 223.031 299.623 222.747 300.015 222.532C300.407 222.308 300.86 222.196 301.373 222.196C301.691 222.196 301.994 222.247 302.283 222.35C302.582 222.443 302.839 222.593 303.053 222.798C303.277 223.003 303.455 223.269 303.585 223.596C303.716 223.913 303.781 224.291 303.781 224.73V229H302.521V225.08C302.521 224.772 302.479 224.511 302.395 224.296C302.311 224.072 302.199 223.895 302.059 223.764C301.919 223.624 301.756 223.526 301.569 223.47C301.392 223.405 301.205 223.372 301.009 223.372C300.748 223.372 300.505 223.414 300.281 223.498C300.057 223.582 299.861 223.717 299.693 223.904C299.525 224.081 299.395 224.31 299.301 224.59C299.208 224.87 299.161 225.201 299.161 225.584V229H297.901V218.416ZM311.971 220.348H308.779V219.088H316.507V220.348H313.315V229H311.971V220.348ZM317.009 226.144C317.009 226.433 317.07 226.699 317.191 226.942C317.322 227.175 317.49 227.376 317.695 227.544C317.901 227.712 318.139 227.843 318.409 227.936C318.68 228.029 318.96 228.076 319.249 228.076C319.641 228.076 319.982 227.987 320.271 227.81C320.561 227.623 320.827 227.381 321.069 227.082L322.021 227.81C321.321 228.715 320.341 229.168 319.081 229.168C318.559 229.168 318.083 229.079 317.653 228.902C317.233 228.725 316.874 228.482 316.575 228.174C316.286 227.857 316.062 227.488 315.903 227.068C315.745 226.639 315.665 226.177 315.665 225.682C315.665 225.187 315.749 224.73 315.917 224.31C316.095 223.881 316.333 223.512 316.631 223.204C316.939 222.887 317.303 222.639 317.723 222.462C318.143 222.285 318.601 222.196 319.095 222.196C319.683 222.196 320.178 222.299 320.579 222.504C320.99 222.709 321.326 222.98 321.587 223.316C321.849 223.643 322.035 224.016 322.147 224.436C322.269 224.847 322.329 225.267 322.329 225.696V226.144H317.009ZM320.985 225.136C320.976 224.856 320.929 224.599 320.845 224.366C320.771 224.133 320.654 223.932 320.495 223.764C320.337 223.587 320.136 223.451 319.893 223.358C319.66 223.255 319.385 223.204 319.067 223.204C318.759 223.204 318.475 223.265 318.213 223.386C317.961 223.498 317.747 223.647 317.569 223.834C317.392 224.021 317.252 224.231 317.149 224.464C317.056 224.688 317.009 224.912 317.009 225.136H320.985ZM323.865 223.176C324.219 222.849 324.63 222.607 325.097 222.448C325.563 222.28 326.03 222.196 326.497 222.196C326.982 222.196 327.397 222.257 327.743 222.378C328.097 222.499 328.387 222.663 328.611 222.868C328.835 223.073 328.998 223.311 329.101 223.582C329.213 223.843 329.269 224.119 329.269 224.408V227.796C329.269 228.029 329.273 228.244 329.283 228.44C329.292 228.636 329.306 228.823 329.325 229H328.205C328.177 228.664 328.163 228.328 328.163 227.992H328.135C327.855 228.421 327.523 228.725 327.141 228.902C326.758 229.079 326.315 229.168 325.811 229.168C325.503 229.168 325.209 229.126 324.929 229.042C324.649 228.958 324.401 228.832 324.187 228.664C323.981 228.496 323.818 228.291 323.697 228.048C323.575 227.796 323.515 227.507 323.515 227.18C323.515 226.751 323.608 226.391 323.795 226.102C323.991 225.813 324.252 225.579 324.579 225.402C324.915 225.215 325.302 225.085 325.741 225.01C326.189 224.926 326.665 224.884 327.169 224.884H328.093V224.604C328.093 224.436 328.06 224.268 327.995 224.1C327.929 223.932 327.831 223.783 327.701 223.652C327.57 223.512 327.407 223.405 327.211 223.33C327.015 223.246 326.781 223.204 326.511 223.204C326.268 223.204 326.053 223.227 325.867 223.274C325.689 223.321 325.526 223.381 325.377 223.456C325.227 223.521 325.092 223.601 324.971 223.694C324.849 223.787 324.733 223.876 324.621 223.96L323.865 223.176ZM327.421 225.808C327.122 225.808 326.814 225.827 326.497 225.864C326.189 225.892 325.904 225.953 325.643 226.046C325.391 226.139 325.181 226.27 325.013 226.438C324.854 226.606 324.775 226.821 324.775 227.082C324.775 227.465 324.901 227.74 325.153 227.908C325.414 228.076 325.764 228.16 326.203 228.16C326.548 228.16 326.842 228.104 327.085 227.992C327.327 227.871 327.523 227.717 327.673 227.53C327.822 227.343 327.929 227.138 327.995 226.914C328.06 226.681 328.093 226.452 328.093 226.228V225.808H327.421ZM331.097 222.364H332.273V223.4H332.301C332.329 223.307 332.399 223.19 332.511 223.05C332.632 222.91 332.781 222.779 332.959 222.658C333.145 222.527 333.36 222.42 333.603 222.336C333.855 222.243 334.13 222.196 334.429 222.196C334.923 222.196 335.339 222.299 335.675 222.504C336.011 222.709 336.286 223.017 336.501 223.428C336.715 223.017 337.019 222.709 337.411 222.504C337.803 222.299 338.199 222.196 338.601 222.196C339.114 222.196 339.534 222.28 339.861 222.448C340.187 222.616 340.444 222.84 340.631 223.12C340.817 223.391 340.943 223.703 341.009 224.058C341.083 224.403 341.121 224.763 341.121 225.136V229H339.861V225.304C339.861 225.052 339.842 224.809 339.805 224.576C339.777 224.343 339.711 224.137 339.609 223.96C339.506 223.783 339.361 223.643 339.175 223.54C338.988 223.428 338.741 223.372 338.433 223.372C337.826 223.372 337.392 223.559 337.131 223.932C336.869 224.305 336.739 224.786 336.739 225.374V229H335.479V225.528C335.479 225.211 335.46 224.921 335.423 224.66C335.395 224.399 335.329 224.175 335.227 223.988C335.133 223.792 334.993 223.643 334.807 223.54C334.629 223.428 334.387 223.372 334.079 223.372C333.855 223.372 333.635 223.419 333.421 223.512C333.215 223.596 333.033 223.727 332.875 223.904C332.716 224.081 332.59 224.31 332.497 224.59C332.403 224.861 332.357 225.183 332.357 225.556V229H331.097V222.364ZM345.832 221.146L347.778 220.488L348.072 221.426L346.126 222.056L347.358 223.722L346.588 224.296L345.314 222.588L344.068 224.268L343.298 223.694L344.544 222.056L342.556 221.384L342.85 220.474L344.824 221.146V219.088H345.832V221.146Z" fill="#2260FF"/>
<line x1="179" y1="215.5" x2="243" y2="215.5" stroke="#2260FF" stroke-dasharray="3 3"/>
<g filter="url(#filter0_d_253_33357)">
<circle cx="163" cy="215" r="7" fill="#2260FF"/>
<circle cx="163" cy="215" r="8.5" stroke="white" stroke-width="3"/>
</g>
<defs>
<filter id="filter0_d_253_33357" x="149" y="205" width="28" height="28" filterUnits="userSpaceOnUse" color-interpolation-filters="sRGB">
<feFlood flood-opacity="0" result="BackgroundImageFix"/>
<feColorMatrix in="SourceAlpha" type="matrix" values="0 0 0 0 0 0 0 0 0 0 0 0 0 0 0 0 0 0 127 0" result="hardAlpha"/>
<feOffset dy="4"/>
<feGaussianBlur stdDeviation="2"/>
<feComposite in2="hardAlpha" operator="out"/>
<feColorMatrix type="matrix" values="0 0 0 0 0 0 0 0 0 0 0 0 0 0 0 0 0 0 0.17 0"/>
<feBlend mode="normal" in2="BackgroundImageFix" result="effect1_dropShadow_253_33357"/>
<feBlend mode="normal" in="SourceGraphic" in2="effect1_dropShadow_253_33357" result="shape"/>
</filter>
</defs>
</svg>
