<svg width="18" height="18" viewBox="0 0 18 18" fill="none" xmlns="http://www.w3.org/2000/svg">
<path d="M8.99983 0C4.03529 0 0 4.03529 0 8.99983C0 13.9644 4.03529 18 8.99983 18C13.9644 18 18 13.9647 18 8.99983C18 4.03496 13.9647 0 8.99983 0ZM8.49987 1.30467V4.75011H5.24988C5.43557 4.26874 5.65086 3.81738 5.89043 3.42196C6.61343 2.22907 7.52784 1.49509 8.49987 1.30474V1.30467ZM9.49993 1.30467C10.472 1.49502 11.3863 2.229 12.1092 3.42189C12.3489 3.81731 12.5642 4.26871 12.7499 4.75005H9.49993V1.30467ZM6.10907 1.53908C5.71169 1.92703 5.35246 2.38875 5.03882 2.90628C4.70516 3.45679 4.42009 4.08041 4.18723 4.75004H2.22626C3.13587 3.30299 4.49366 2.16426 6.10907 1.53908ZM11.8904 1.53908C13.5058 2.16426 14.8636 3.30299 15.7732 4.75004H13.8122C13.5793 4.08041 13.2943 3.45675 12.9606 2.90628C12.647 2.38872 12.2877 1.927 11.8904 1.53908H11.8904ZM1.68706 5.75003H3.88232C3.66871 6.60833 3.54105 7.53514 3.50731 8.50007H1.01507C1.07568 7.52585 1.30948 6.59841 1.68706 5.75003ZM4.92144 5.75003H8.49954V8.50007H4.50726C4.54448 7.52118 4.69089 6.59543 4.92131 5.75003H4.92144ZM9.4996 5.75003H13.0777C13.3081 6.59543 13.4545 7.52118 13.4917 8.50007H9.49947L9.4996 5.75003ZM14.1168 5.75003H16.312C16.6896 6.59841 16.9233 7.52585 16.984 8.50007H14.4918C14.4579 7.53514 14.3304 6.60833 14.1168 5.75003ZM1.01517 9.50016H3.5074C3.54074 10.4674 3.66816 11.3912 3.88242 12.2502H1.68716C1.31019 11.4013 1.07489 10.4748 1.01521 9.50016H1.01517ZM4.50759 9.50016H8.49987V12.2502H4.92177C4.69085 11.4048 4.54458 10.4807 4.50772 9.50016H4.50759ZM9.49993 9.50016H13.4922C13.4554 10.4807 13.309 11.4048 13.0782 12.2502H9.50006L9.49993 9.50016ZM14.4923 9.50016H16.9845C16.9248 10.4748 16.6895 11.4013 16.3125 12.2502H14.1173C14.3315 11.3912 14.459 10.4674 14.4923 9.50016H14.4923ZM2.21868 13.2503H4.18743C4.42029 13.9186 4.70535 14.5358 5.03901 15.0863C5.35368 15.6057 5.71808 16.0714 6.11714 16.4612C4.49562 15.8353 3.12935 14.7035 2.21881 13.2503H2.21868ZM5.24991 13.2503H8.49991V16.7033C7.52787 16.5113 6.6135 15.7635 5.89047 14.5705C5.65088 14.175 5.4356 13.7305 5.24991 13.2502V13.2503ZM9.4999 13.2503H12.7499C12.5642 13.7306 12.3489 14.1751 12.1092 14.5706C11.3863 15.7636 10.4719 16.5114 9.4999 16.7034V13.2503ZM13.8124 13.2503H15.7812C14.8705 14.7036 13.5042 15.8353 11.8828 16.4612C12.2819 16.0714 12.6461 15.6057 12.961 15.0863C13.2946 14.5358 13.5797 13.9186 13.8125 13.2503H13.8124Z" fill="black"/>
</svg>
