<svg width="14" height="18" viewBox="0 0 14 18" fill="none" xmlns="http://www.w3.org/2000/svg">
<path d="M12.4074 3.76446C12.1741 3.72459 11.9538 3.72904 11.7475 3.77794C11.739 3.47159 11.7247 3.16455 11.7036 2.85759V2.85419C11.6652 2.39973 11.4783 2.0231 11.1421 1.72392C10.7959 1.41522 10.3931 1.2762 9.93354 1.30785C9.57082 1.33215 9.2552 1.45726 8.98619 1.68319C8.96233 1.51165 8.9381 1.3952 8.9151 1.33463L8.91195 1.32789C8.73282 0.848523 8.42393 0.481841 7.98444 0.227971L7.98104 0.224818C7.50588 -0.0543389 6.99023 -0.0735022 6.43446 0.167208H6.43804C5.87281 0.391471 5.53012 0.877643 5.40946 1.62577V1.61903C5.38857 1.72857 5.37318 1.84904 5.36199 1.98108C5.31217 1.949 5.25882 1.9197 5.20313 1.89312L5.19614 1.88972C4.78681 1.70427 4.36864 1.68277 3.94077 1.82537C3.93823 1.82661 3.93465 1.82772 3.93087 1.82877C3.50449 1.98361 3.18966 2.25664 2.98692 2.64762V2.64422C2.79301 2.98499 2.7242 3.46219 2.78033 4.07539H2.77693C2.81322 4.521 3.21791 6.36739 3.99164 9.61502C3.97582 9.60593 3.95999 9.59709 3.94436 9.588H3.94775C3.55091 9.35379 3.11457 9.17447 2.6381 9.04979L2.6415 9.05319C2.1096 8.90483 1.54245 8.95676 0.93959 9.2089C0.224092 9.50133 -0.0828686 10.0495 0.0190561 10.8534V10.8571C0.0952108 11.6313 0.608323 12.1322 1.55865 12.3592C2.16462 12.5025 2.56616 12.6447 2.76322 12.7856L2.76681 12.789C2.94464 12.9456 3.13417 13.2015 3.33525 13.5572C3.3363 13.5598 3.33716 13.5619 3.33865 13.564C3.61589 14.0724 4.03764 14.4685 4.60417 14.7517H4.60077C4.76786 14.8375 4.9392 14.913 5.11519 14.9785C4.93227 15.2603 4.84994 15.5062 4.86812 15.7161C4.84068 16.4159 5.25446 16.9753 6.10978 17.3946L6.10638 17.391C6.68916 17.686 7.33542 17.8779 8.0455 17.9663H8.04908C8.76607 18.0524 9.48595 17.9733 10.2077 17.7296L10.2113 17.726C11.0624 17.4532 11.5063 16.767 11.5407 15.6688C11.5432 15.6104 11.5352 15.5566 11.5173 15.5061C13.1567 14.5746 13.6249 12.709 12.9219 9.90923C13.381 8.49895 13.6821 7.04502 13.8251 5.54741V5.54425C13.8658 5.12014 13.7472 4.73449 13.4696 4.38697C13.1904 4.03945 12.8364 3.83182 12.4075 3.76457L12.4074 3.76446ZM11.9914 9.74037C11.9623 9.82901 11.9599 9.9182 11.9842 10.0077C12.7043 12.7588 12.1093 14.436 10.1978 15.0394C10.0746 15.0757 9.98219 15.15 9.92032 15.2628C9.85869 15.3763 9.84627 15.495 9.88298 15.6183C9.91883 15.7414 9.99332 15.8338 10.1066 15.8956C10.2199 15.9574 10.3385 15.9698 10.4617 15.9332C10.5037 15.9214 10.5453 15.9089 10.5871 15.8956C10.5171 16.3773 10.2906 16.6944 9.90684 16.8467L9.91043 16.8431C9.32536 17.0411 8.74215 17.1066 8.16089 17.0396C7.56271 16.9655 7.01752 16.8056 6.52655 16.5592L6.52297 16.5556C6.06957 16.3336 5.82904 16.0541 5.80202 15.7163C5.82545 15.5962 5.92015 15.4361 6.08667 15.2358C6.15522 15.2477 6.22402 15.2578 6.29282 15.2664C6.42046 15.2823 6.53543 15.2506 6.63823 15.1717C6.73973 15.0921 6.79839 14.9883 6.81421 14.8603C6.83047 14.7326 6.79857 14.6176 6.71945 14.5153C6.6399 14.4136 6.53611 14.3549 6.40822 14.3391C5.91322 14.2783 5.45308 14.1386 5.02773 13.9196H5.02415C4.63658 13.726 4.34642 13.4563 4.15443 13.1105L4.15127 13.1042C3.87658 12.6172 3.61237 12.2725 3.35944 12.0686L3.35604 12.065C3.10959 11.8469 2.58256 11.6428 1.77552 11.4528C1.29213 11.3374 1.01552 11.0994 0.946528 10.7388V10.7354C0.904989 10.4132 1.02206 10.191 1.29868 10.0686C1.68861 9.90595 2.0551 9.86713 2.3986 9.95366L2.40175 9.95725C2.79168 10.0583 3.14927 10.2037 3.47441 10.3936H3.47781C3.87831 10.6272 4.23231 10.7707 4.54038 10.8234C4.54965 10.8263 4.55855 10.8284 4.56715 10.8301C4.58464 10.8333 4.603 10.8354 4.62136 10.8367C4.77033 10.8474 5.04904 10.8426 5.45707 10.8234H5.46381C5.78494 10.8116 6.18752 10.9107 6.67197 11.1211V11.1245C7.14583 11.3388 7.53008 11.7484 7.8261 12.3528C7.88266 12.4682 7.97149 12.5472 8.09346 12.5898C8.21436 12.6324 8.33316 12.6256 8.44857 12.5695C8.56459 12.5125 8.64353 12.4235 8.68574 12.3017C8.72815 12.1812 8.72141 12.0627 8.66528 11.9466C8.25638 11.1073 7.71669 10.5467 7.04424 10.2646V10.2682C6.39501 9.98357 5.85235 9.8574 5.41686 9.88905H5.41012C5.2601 9.89603 5.13017 9.90067 5.02107 9.90252C4.18867 6.42132 3.75214 4.45182 3.71141 3.99434H3.70783C3.67383 3.6059 3.70869 3.30252 3.81291 3.08389V3.08049C3.90618 2.9058 4.04793 2.78298 4.23912 2.71164C4.24271 2.71059 4.24586 2.70929 4.24926 2.70824C4.43828 2.64766 4.62336 2.65805 4.80435 2.73865C4.80669 2.73989 4.80898 2.741 4.81133 2.74224C4.97736 2.82284 5.09215 2.949 5.15649 3.12098L5.15309 3.11782C5.25434 3.39741 5.34675 3.67946 5.43033 3.96368C5.43244 3.97234 5.43479 3.98118 5.43732 3.9907C5.45296 4.03477 5.48986 4.15779 5.54871 4.35972C5.55038 4.36961 5.55273 4.37999 5.55569 4.39013C5.84053 5.36661 6.10553 6.66947 6.35093 8.29827C6.36972 8.42654 6.43048 8.52909 6.53365 8.60629C6.63831 8.68245 6.75432 8.71076 6.88222 8.69092C7.00881 8.67237 7.1105 8.61118 7.1869 8.50819C7.26287 8.40459 7.29093 8.28938 7.27127 8.16303C7.02149 6.48818 6.75099 5.14691 6.45917 4.13985C6.28744 3.08196 6.24418 2.29552 6.33066 1.78123V1.77449C6.39037 1.40317 6.54818 1.15394 6.80434 1.02654H6.80793C7.06427 0.915583 7.30208 0.918736 7.52194 1.03668L7.51761 1.03383C7.76215 1.17563 7.93517 1.37986 8.03537 1.64635C8.14361 1.98689 8.28979 4.11669 8.47548 8.03495C8.47504 8.04045 8.47504 8.04614 8.47548 8.05183C8.48073 8.17756 8.5303 8.28351 8.62445 8.3698C8.71834 8.45739 8.82912 8.49893 8.95589 8.49516C9.08335 8.49071 9.19202 8.44244 9.28061 8.34959C9.36881 8.25761 9.4114 8.14789 9.4093 8.0213V8.00442C9.35973 4.85522 9.33037 3.19714 9.32109 3.03004V3.0233C9.30694 2.82284 9.36288 2.64692 9.4901 2.49542L9.49368 2.49202C9.62807 2.33928 9.79522 2.2557 9.99481 2.24155C10.194 2.22783 10.3689 2.28779 10.5194 2.42087C10.6689 2.5542 10.7525 2.7224 10.7696 2.92491C10.7917 3.24182 10.808 3.55893 10.8172 3.87586C10.8212 4.10055 10.8238 4.33179 10.8238 4.5696C10.8219 4.59154 10.8219 4.61435 10.8238 4.63734C10.8223 5.78367 10.7421 7.09961 10.5837 8.58615C10.57 8.7138 10.604 8.82773 10.6849 8.92816C10.7653 9.02904 10.8692 9.0866 10.9962 9.10074C11.1236 9.11422 11.2378 9.08047 11.338 8.99925C11.4386 8.91889 11.4964 8.81503 11.5104 8.68782C11.6666 7.23049 11.7488 5.93201 11.7575 4.79313C11.7606 4.79122 11.764 4.78893 11.7678 4.78615C11.9096 4.68718 12.0721 4.65362 12.2552 4.68465L12.2586 4.68471C12.4522 4.71654 12.6124 4.81149 12.739 4.96912C12.8578 5.11723 12.9107 5.28072 12.8981 5.45987C12.7565 6.93072 12.4541 8.35746 11.9915 9.74051L11.9914 9.74037Z" fill="black"/>
</svg>
