<svg height="441" viewBox="0 0 373 441" width="373" xmlns="http://www.w3.org/2000/svg"><path d="m977.2569 430.066231c0-13.176255 2.935896-26.418776 8.647717-41.480318 3.661404-9.654781 5.577464-13.832152 16.012253-35.715279 8.12484-17.038839 12.4909-27.131331 16.21487-38.384133 4.73627-14.311677 7.17933-27.683885 7.17933-41.198462 0-34.880228-8.52719-66.319432-27.09882-89.909068-23.006006-29.222175-60.536798-45.457706-115.082352-45.457706-54.676439 0-89.937627 17.539931-110.260524 50.235454-16.578385 26.671345-23.0049 62.205241-22.629631 109.226983.009647 1.208792-.31798 2.396326-.94607 3.429173-18.938829 31.143523-32.487782 53.884432-40.621243 68.175723l31.055248 7.479217c2.771928.66758 4.78522 3.063667 4.965129 5.909168.880644 13.928538 1.708924 27.816027 2.48484 41.662469 14.679188.493347 39.535863-3.14951 74.132681-11.006081 5.368026-1.219022 9.726415 4.369444 7.236443 9.278797-7.178701 14.153884-18.584755 25.411997-34.046879 33.703602-11.703971 6.276286-23.268463 10.705229-34.688383 13.26801 7.375251 10.467243 16.752911 16.47554 28.329475 18.331395 15.676426 2.51311 36.991531 2.51311 63.850127-.052494 2.962369-.282974 5.73857 1.481927 6.739429 4.284423l22.132066 61.971803c24.866726-.745982 47.536205-4.572091 68.022735-11.461407 19.626191-6.599998 36.491794-16.072389 50.647225-28.421925-14.869595-23.08637-22.275666-51.093079-22.275666-83.869344zm-215.428439-248.772327c22.823108-36.717868 62.335838-56.372639 121.301437-56.372639 58.341965 0 99.685571 17.884925 125.296722 50.416148 20.603 26.16988 29.88445 60.389986 29.88445 97.950626 0 15.004745-2.68983 29.727682-7.8376 45.282801-3.94061 11.907411-8.47785 22.395587-16.82238 39.895161-10.24336 21.481669-12.11281 25.557428-15.59119 34.729587-5.196471 13.70261-7.803 25.459505-7.803 36.870643 0 32.498731 7.727334 59.478524 23.11159 81.124181 1.87588 2.639356 1.52302 6.256906-.82754 8.484007-16.361586 15.502223-36.221115 27.172653-59.511928 35.005008-23.079023 7.761134-48.623473 11.834763-76.616231 12.241153-2.781373.040379-5.280151-1.69357-6.2157-4.313192l-22.015553-61.645556c-25.529174 2.193455-46.202355 2.037753-62.098328-.510553-18.432263-2.954902-32.710056-14.108504-42.472677-32.898166-2.076675-3.996879.442688-8.84319 4.907203-9.43962 12.901253-1.723524 26.177185-6.228485 39.838485-13.554394 7.99078-4.285077 14.618918-9.40822 19.922543-15.385175-32.106877 6.65693-54.681612 9.126302-68.134119 7.335466-3.095715-.41211-5.460783-2.967577-5.632443-6.085881-.776406-14.103905-1.607361-28.250719-2.492867-42.440441l-34.730187-8.364274c-4.162318-1.002435-6.235508-5.6852-4.17962-9.440608 7.208998-13.168387 21.901402-37.99103 44.119216-74.545006-.208285-48.356493 6.667512-85.489903 24.599717-114.339276z" transform="matrix(.93358043 .35836795 -.35836795 .93358043 -511.559447 -419.123082)"/></svg>