<svg width="86" height="112" viewBox="0 0 86 112" fill="none" xmlns="http://www.w3.org/2000/svg">
<g filter="url(#filter0_d_405_607)">
<path d="M34.0893 90.3274L18.5355 78.9309C17.7798 78.3771 17.3261 77.5086 17.3099 76.5719C17.0869 63.6687 16.7902 38.7226 17.2159 31.335C17.7691 21.7332 26.9769 14.4522 38.521 13.139C48.4831 12.0057 61.1688 17.9117 62.9769 26.9523C64.328 33.7078 66.5414 46.1771 67.9943 53.9919C68.2253 55.2343 67.2641 56.3783 66.0005 56.3636L59.39 56.2868C59.4549 58.6252 59.7546 63.9904 59.9307 66.7848C60.3509 73.4522 56.8769 77.3522 52.4769 76.9522C48.0769 76.5522 42.9429 76.1774 39.7258 75.8271L38.8549 88.1195C38.6881 90.474 35.9933 91.7225 34.0893 90.3274Z" fill="#E5EAF1"/>
<path d="M38.3513 11.6485C43.6625 11.0443 49.6272 12.3129 54.5104 14.9054C59.3712 17.4862 63.4222 21.5301 64.4478 26.6581C65.8014 33.4258 68.0214 45.9287 69.4695 53.718C69.8729 55.8885 68.1931 57.8887 65.9834 57.8633L60.9472 57.8054C61.0601 60.4457 61.2842 64.4126 61.4277 66.6901C61.6543 70.2852 60.8426 73.3192 59.196 75.439C57.524 77.5913 55.062 78.6935 52.3406 78.4461C48.6333 78.109 44.3083 77.7813 41.1123 77.4745L40.3514 88.2255C40.1012 91.7572 36.0585 93.6301 33.2025 91.5375L17.6487 80.1408C16.5184 79.3125 15.8344 78.0078 15.8099 76.5982C15.5874 63.7267 15.2888 38.707 15.7185 31.2483C16.3304 20.6331 26.4081 13.0072 38.3513 11.6485Z" stroke="#9AA0A8" stroke-width="3"/>
</g>
<defs>
<filter id="filter0_d_405_607" x="0" y="0" width="85.0296" height="111.916" filterUnits="userSpaceOnUse" color-interpolation-filters="sRGB">
<feFlood flood-opacity="0" result="BackgroundImageFix"/>
<feColorMatrix in="SourceAlpha" type="matrix" values="0 0 0 0 0 0 0 0 0 0 0 0 0 0 0 0 0 0 127 0" result="hardAlpha"/>
<feOffset dy="4"/>
<feGaussianBlur stdDeviation="7"/>
<feComposite in2="hardAlpha" operator="out"/>
<feColorMatrix type="matrix" values="0 0 0 0 0.314524 0 0 0 0 0.365715 0 0 0 0 0.397536 0 0 0 0.13 0"/>
<feBlend mode="normal" in2="BackgroundImageFix" result="effect1_dropShadow_405_607"/>
<feBlend mode="normal" in="SourceGraphic" in2="effect1_dropShadow_405_607" result="shape"/>
</filter>
</defs>
</svg>
