<svg height="438" viewBox="0 0 373 438" width="373" xmlns="http://www.w3.org/2000/svg"><path d="m1647.26807 918.126477c0-13.176255 2.93589-26.418777 8.64771-41.480318 3.66141-9.654781 5.57747-13.832152 16.01226-35.715279 8.12483-17.03884 12.49089-27.131331 16.21487-38.384133 4.73627-14.311677 7.17932-27.683885 7.17932-41.198462 0-34.880228-8.52719-66.319433-27.09881-89.909068-23.00601-29.222175-60.5368-45.457706-115.08236-45.457706-32.15051 0-57.31797 9.08974-76.803 26.032782-16.40079 14.261159-28.50913 33.785316-37.4647 58.12097-4.64876 12.632429-8.24724 25.897065-11.55946 41.461218-1.2161 5.714481-5.53945 28.192153-6.60853 32.80431-.22187.95716-.43988 1.855796-.65647 2.703719-3.72703 14.590797-11.24913 27.93179-22.70934 42.695373-3.60936 4.649739-15.5654 18.920889-17.51314 21.467504-2.19277 2.866983-3.60975 5.051619-4.35041 6.69672-.26103.579795-.40925 1.029636-.46669 1.333065 1.86346 3.670391 12.73335 6.148861 32.85631 5.059706 3.56163-.192773 6.61328 2.520609 6.83834 6.080351.88065 13.928538 1.70893 27.816027 2.48484 41.662469 14.67919.493347 39.53587-3.14951 74.13268-11.006081 5.36803-1.219022 9.72642 4.369444 7.23645 9.278797-7.1787 14.153884-18.58476 25.411997-34.04688 33.703602-12.31876 6.605969-24.48301 11.165424-36.4868 13.656416 6.01647 15.238646 14.89636 23.405318 26.75124 25.305791 15.26253 2.446757 37.41523.078568 66.24455-7.244671 3.24966-.82548 6.594.956254 7.72166 4.113798l22.13206 61.9718c24.86673-.74598 47.53621-4.57209 68.02274-11.4614 19.62619-6.6 36.49179-16.07239 50.64722-28.42193-14.86959-23.086369-22.27566-51.093078-22.27566-83.869343zm-284.51411-54.437362c-1.35148-3.520736-.87494-7.190494.86804-11.06191 1.23352-2.739819 3.13141-5.665877 5.87841-9.25751 2.17303-2.841167 14.1691-17.160101 17.56996-21.541256 10.4636-13.47969 17.17511-25.383049 20.38296-37.941307.19158-.750026.38695-1.555343.58781-2.421871 1.00192-4.322396 5.29401-26.637579 6.5575-32.574725 3.43082-16.121474 7.18296-29.952493 12.0746-43.24494 9.65385-26.233129 22.89135-47.578009 41.13463-63.441292 21.8912-19.035304 50.09808-29.222793 85.33319-29.222793 58.34197 0 99.68557 17.884925 125.29673 50.416147 20.60299 26.169881 29.88444 60.389986 29.88444 97.950627 0 15.004745-2.68983 29.727682-7.8376 45.282801-3.94061 11.907411-8.47784 22.395587-16.82237 39.895161-10.24336 21.481669-12.11282 25.557428-15.59119 34.729587-5.19647 13.70261-7.803 25.459504-7.803 36.870643 0 32.498731 7.72733 59.478524 23.11159 81.124181 1.87587 2.639352 1.52301 6.256902-.82755 8.484002-16.36158 15.50223-36.22111 27.17266-59.51192 35.00501-23.07902 7.76114-48.62348 11.83477-76.61623 12.24116-2.78138.04038-5.28015-1.69357-6.2157-4.3132l-21.73408-60.857397c-27.66017 6.607214-49.5206 8.666887-65.75645 6.064094-19.05337-3.054472-32.29317-17.251031-39.55263-41.385544-1.15258-3.831832 1.39762-7.785188 5.3638-8.315044 12.90126-1.723524 26.17719-6.228485 39.83849-13.554394 7.99078-4.285077 14.61891-9.40822 19.92254-15.385175-32.10688 6.656929-54.68161 9.126302-68.13412 7.335466-3.09571-.41211-5.46078-2.967577-5.63244-6.085881-.74827-13.592697-1.5472-27.225249-2.3968-40.897654-22.19138.477369-35.38315-3.504094-39.37261-13.896986z" transform="matrix(.93358043 .35836795 -.35836795 .93358043 -962.163889 -1117.755093)"/></svg>