<svg height="183" viewBox="0 0 150 183" width="150" xmlns="http://www.w3.org/2000/svg"><path d="m75.0011303 0c-41.3560803 0-75.0011303 33.6245556-75.0011303 74.9531852 0 40.8044818 71.2145645 105.0442588 74.2460778 107.7576298.2147604.192037.4860368.289185.7550525.289185s.5402921-.097148.7527919-.289185c3.0315133-2.713371 74.2460778-66.955408 74.2460778-107.7576298.002261-41.3286296-33.642789-74.9531852-74.9988697-74.9531852zm0 102.317333c-16.9276445 0-30.6994409-13.7634071-30.6994409-30.6807404s13.7717964-30.6807407 30.6994409-30.6807407c16.9231233 0 30.6971807 13.7634074 30.6971807 30.6807407 0 16.9195926-13.7740574 30.6807404-30.6971807 30.6807404z" fill="#2b2929"/></svg>