<svg height="84" viewBox="0 0 84 84" width="84" xmlns="http://www.w3.org/2000/svg"><g fill="none" fill-rule="evenodd"><circle cx="42" cy="42" fill="#000" r="42"/><g fill="#fff" fill-rule="nonzero" transform="translate(14 26)"><path d="m6.44746919 3.31124498v9.59236952h-2.97174456v-9.59236952h-3.47572463v-2.49196787h9.92319382v2.49196787zm7.53652941 5.88855422h-.3649511c-.3128167 0-.6285252.01422342-.9471349.04267068s-.6024577.08249625-.8515526.16214859c-.2490948.07965234-.4547398.19628438-.6169411.3498996-.1622013.15361523-.2433007.35558773-.2433007.60592373 0 .1593046.0376533.2958495.112961.4096385.0753078.1137891.1708893.204819.2867473.2730924.1158581.0682734.2490929.116633.3997084.1450803.1506154.0284473.2954359.0426707.4344655.0426707.5792904 0 1.0224408-.1564576 1.3294647-.4693775s.4605335-.7367778.4605335-1.27158636zm-5.23096554-3.63554217c.50977549-.47791404 1.10353918-.83634419 1.78130884-1.07530121.6777697-.23895701 1.3700113-.35843373 2.0767455-.35843373.7299058 0 1.3468408.08818519 1.8508234.26455823s.9123761.44946268 1.2251929.81927711.541633.83634256.6864556 1.39959839.2172328 1.23175651.2172328 2.00552209v4.28413659h-2.6067935v-.9046185h-.0521358c-.2201304.3527461-.5532173.6258357-.9992709.8192771-.4460535.1934414-.9297537.2901606-1.451115.2901606-.3475742 0-.7067288-.0455149-1.0774746-.1365461-.3707459-.0910313-.70962562-.2389548-1.0166495-.4437752-.30702388-.2048203-.55901139-.4779099-.75597011-.8192771-.19695871-.3413671-.29543659-.7623803-.29543659-1.2630522 0-.61446087.17088809-1.10943584.51266938-1.48493973.3417813-.37550388.78203535-.66566162 1.32077532-.87048192.5387401-.20482031 1.1382966-.34136512 1.7986875-.40963856.660391-.06827343 1.3033936-.10240964 1.9290272-.10240964v-.13654618c0-.42101951-.1506132-.73109004-.4518442-.93022089-.301231-.19913084-.6719712-.29869477-1.1122319-.29869477-.4055032 0-.7965183.08534051-1.173057.25602409-.3765388.17068359-.6980401.37550082-.9645136.61445783zm13.97289994 8.61947787c-.1737871.4437774-.3678464.8391884-.5821839 1.186245-.2143374.3470566-.4692213.6429037-.7646594.8875502-.295438.2446465-.643007.4295509-1.0427174.5547189-.3997103.125168-.8718248.187751-1.4163577.187751-.2664736 0-.5416324-.0170681-.8254846-.0512048-.2838523-.0341367-.530047-.0796517-.7385915-.1365462l.3128152-2.3554217c.1390297.0455156.2925393.0824965.4605335.1109438.1679942.0284472.3215038.0426707.4605335.0426707.4402607 0 .7588656-.099564.9558243-.2986948.1969587-.1991309.3649504-.4807546.5039801-.8448795l.2780579-.6997992-3.6147536-8.36345384h3.1629094l1.9290272 5.46184739h.0521359l1.7204837-5.46184739h3.0238804zm4.7149125-1.2801204v-12.9036145h2.8848515v12.9036145zm13.7406979-4.28413659c0 .69411324-.1274419 1.32278835-.3823297 1.88604419-.2548877.5632558-.6024567 1.0411627-1.0427174 1.4337349-.4402606.3925723-.9500285.6969534-1.5293188.9131526s-1.1991217.3242972-1.8595127.3242972c-.6488051 0-1.2657401-.108098-1.8508233-.3242972-.5850833-.2161992-1.0948511-.5205803-1.5293189-.9131526-.4344677-.3925722-.7791403-.8704791-1.0340281-1.4337349-.2548877-.56325584-.3823297-1.19193095-.3823297-1.88604419s.127442-1.31994366.3823297-1.87751004c.2548878-.55756637.5995604-1.02978387 1.0340281-1.41666667.4344678-.38688279.9442356-.68272989 1.5293189-.8875502.5850832-.2048203 1.2020182-.30722891 1.8508233-.30722891.660391 0 1.2802224.10240861 1.8595127.30722891.5792903.20482031 1.0890582.50066741 1.5293188.8875502.4402607.3868828.7878297.8591003 1.0427174 1.41666667.2548878.55756638.3823297 1.1833968.3823297 1.87751004zm-2.7458224 0c0-.27309373-.0463425-.540494-.139029-.80220883s-.2259212-.49213422-.3997083-.69126506c-.1737871-.19913085-.3881213-.36127783-.6430091-.48644579-.2548877-.12516796-.5503214-.187751-.8863098-.187751s-.631422.06258304-.8863098.187751c-.2548877.12516796-.4663255.28731494-.6343197.48644579-.1679942.19913084-.2954362.42955023-.3823297.69126506-.0868936.26171483-.1303397.5291151-.1303397.80220883 0 .27309374.0434461.54049401.1303397.80220884.0868935.26171483.2172319.49782358.391019.70833335.1737871.2105097.3881213.3783461.6430091.503514.2548877.125168.5503214.187751.8863098.187751.3359883 0 .631422-.062583.8863097-.187751.2548878-.1251679.469222-.2930043.6430091-.503514.1737871-.21050977.3041255-.44661852.391019-.70833335.0868936-.26171483.1303397-.5291151.1303397-.80220884zm9.4426286-1.92871486c-.1274438-.03413671-.2519894-.05689418-.3736404-.06827309-.1216509-.01137891-.2404037-.01706827-.3562617-.01706827-.3823317 0-.703833.06827241-.9645136.20481927-.2606807.13654687-.4692221.30153853-.6256305.49497992-.1564083.1934414-.2693683.403948-.3388831.63152611s-.1042717.42670597-.1042717.59738956v4.36947795h-2.8500942v-8.50000004h2.7458224v1.22891566h.0347573c.2201303-.43239841.5329424-.7851392.9384456-1.05823293.4055032-.27309374.8747214-.40963856 1.4076685-.40963856.1158581 0 .228818.00568937.3388831.01706828.1100652.0113789.1998539.02844701.2693687.05120482z"/><path d="m3 28.7807653v-12.4467425h3.02233445v9.8273009h4.81464905v2.6194416zm14.5014348-5.3795243c0-.4570861-.1435009-.8497054-.430507-1.1778697-.287006-.3281644-.7175087-.4922441-1.2915208-.4922441-.2811488 0-.5388647.0439499-.7731553.1318511-.2342907.0879011-.4392919.2080309-.6150099.360393-.175718.152362-.3162903.3310917-.4217211.5361944s-.1640026.4189923-.1757172.6416753zm2.6533285 1.1075491v.3516029c0 .1172015-.0058572.2285413-.0175717.3340227h-6.3433881c.0234291.2461233.0966438.4688029.2196464.6680455.1230026.1992427.2811465.3721124.4744363.5186143s.4100054.2607717.6501533.3428128.489078.123061.7467978.123061c.4568668 0 .8434406-.0849698 1.159733-.2549121.3162924-.1699422.5740082-.3896918.7731553-.6592554l2.0031751 1.2657704c-.4100086.5977279-.9517977 1.0577371-1.6253833 1.3800414-.6735857.3223043-1.455519.483454-2.3458236.483454-.6560138 0-1.2768748-.1025498-1.8626014-.3076526-.5857267-.2051027-1.0982298-.5039622-1.5375248-.8965873-.439295-.3926252-.7848686-.8760744-1.036731-1.450362-.2518625-.5742876-.3777918-1.2306064-.3777918-1.9689762 0-.7149295.1230007-1.3624583.3690059-1.942606s.5798644-1.0723868 1.0015876-1.4767322c.4217232-.4043453.9195834-.7178548 1.4935955-.9405377.5740121-.222683 1.1948731-.3340228 1.8626015-.3340228.6442993 0 1.2358744.1084098 1.7747429.3252327s1.0015856.5303323 1.3881652.9405378c.3865796.4102054.6882243.9083045.9049432 1.4943123.2167189.5860077.3250767 1.2540465.3250767 2.0041365zm12.0201355 2.549121c-.5505831.6328883-1.2300158 1.1339175-2.0383186 1.5031023-.8083028.3691849-1.7395942.5537746-2.7939022.5537746-.9605917 0-1.8479543-.1582197-2.6621144-.4746639-.81416-.3164442-1.5199501-.7647334-2.1173913-1.3448811s-1.0660154-1.2745564-1.4057369-2.0832471-.5095797-1.6994092-.5095797-2.672182c0-.9962132.1727868-1.8986516.5183655-2.7073423.3455788-.8086907.8229388-1.4972395 1.4320946-2.065667.6091557-.5684276 1.3237315-1.0049968 2.1437488-1.3097208.8200173-.3047241 1.7044513-.4570838 2.6533285-.4570838.87859 0 1.7425239.1552897 2.5918275.4658738.8493037.3105841 1.5375222.7647333 2.0646762 1.3624613l-2.0383186 2.0392968c-.2811488-.3867652-.6501511-.6739047-1.1070178-.8614271-.4568668-.1875225-.9254411-.2812824-1.405737-.2812824-.527154 0-1.0103712.0966899-1.4496662.2900724-.439295.1933826-.8170831.4600121-1.1333755.7998966s-.5622939.7412938-.7380119 1.2042399c-.175718.4629462-.2635756.9698353-.2635756 1.5206826 0 .5625674.0878576 1.0782465.2635756 1.5470527s.418791.8702155.7292261 1.2042399.682366.594794 1.1158037.7823165c.4334377.1875224.9078692.2812823 1.4233087.2812823.5974412 0 1.1187301-.1171998 1.5638823-.3516029.4451523-.2344031.8024402-.5391226 1.0718745-.9141675zm6.2145286-4.6763185c-.1288598-.0351605-.2547892-.0586005-.3777918-.0703206-.1230026-.0117202-.2430747-.0175802-.3602201-.0175802-.3865796 0-.711653.0703199-.97523.2109618-.263577.1406418-.4744354.3105815-.6325816.5098242-.1581462.1992426-.2723612.4160622-.3426484.6504653s-.1054303.4395028-.1054303.6153051v4.5005171h-2.8817607v-8.7549121h2.7763305v1.2657704h.0351434c.2225761-.4453659.5388638-.8086853.9488724-1.089969.4100087-.2812837.8844402-.4219235 1.4233087-.4219235.1171453 0 .2313603.00586.3426484.0175802.111288.0117201.2020743.0293001.2723615.0527404zm9.9503614 1.9865563c0 .7149295-.1288579 1.3624583-.3865777 1.942606-.2577197.5801477-.6091504 1.0723868-1.0543027 1.4767322-.4451522.4043453-.960584.7178548-1.5463106.9405377-.5857267.222683-1.2124448.3340228-1.8801732.3340228-.6560139 0-1.2798034-.1113398-1.8713873-.3340228-.591584-.2226829-1.1070157-.5361924-1.5463107-.9405377-.439295-.4043454-.7877971-.8965845-1.0455168-1.4767322-.2577198-.5801477-.3865777-1.2276765-.3865777-1.942606 0-.7149294.1288579-1.3595283.3865777-1.9338159.2577197-.5742876.6062218-1.0606668 1.0455168-1.459152.439295-.3984853.9547267-.7032048 1.5463107-.9141676.5915839-.2109627 1.2153734-.3164426 1.8713873-.3164426.6677284 0 1.2944465.1054799 1.8801732.3164426.5857266.2109628 1.1011584.5156823 1.5463106.9141676.4451523.3984852.796583.8848644 1.0543027 1.459152.2577198.5742876.3865777 1.2188865.3865777 1.9338159zm-2.7763305 0c0-.2812837-.0468574-.5567032-.1405737-.8262668s-.2284314-.5068931-.4041494-.7119959c-.175718-.2051027-.3924336-.3721124-.6501533-.5010341s-.5564358-.1933816-.8961573-.1933816-.6384376.0644599-.8961573.1933816-.4715068.2959314-.6413675.5010341c-.1698607.2051028-.2987187.4424323-.3865777.7119959s-.1317878.5449831-.1317878.8262668.0439288.5567033.1317878.8262668c.087859.2695636.2196456.5127532.3953636.729576.1757179.2168229.3924336.3896926.6501533.5186143s.5564358.1933816.8961573.1933816.6384376-.0644599.8961573-.1933816.4744354-.3017914.6501534-.5186143c.175718-.2168228.3075045-.4600124.3953635-.729576.087859-.2695635.1317878-.5449831.1317878-.8262668zm8.5180499 5.7311272c-.175718.4570861-.3719334.8643553-.5886523 1.2218201-.2167189.3574647-.4744347.6621842-.7731553.9141675s-.6501514.442433-1.0543028.5713547c-.4041513.1289217-.8815114.1933816-1.4320945.1933816-.2694342 0-.5476502-.01758-.8346563-.0527404-.2870061-.0351605-.5359362-.0820404-.7467977-.1406412l.3162908-2.42606c.1405744.0468806.2957896.0849706.4656503.114271.1698608.0293004.325076.0439503.4656504.0439503.4451523 0 .7672971-.1025498.9664442-.3076525.199147-.2051027.3690052-.4951722.5095796-.8702172l.2811474-.7207859-3.6549161-8.6142709h3.1980516l1.95046 5.6256463h.0527151l1.7395995-5.6256463h3.0574779z"/></g></g></svg>