<svg height="237" viewBox="0 0 400 237" width="400" xmlns="http://www.w3.org/2000/svg"><g fill="#2b2929"><path d="m44.7355738 24.3674645v67.7108433h-20.5545665v-67.7108433h-24.04042868v-17.59036149h68.63542388v17.59036149zm52.127662 41.566265h-2.524245c-2.1636494 0-4.3472999.1004006-6.5510169.3012048-2.2037169.2008043-4.166999.5823265-5.889905 1.1445784-1.722906.5622518-3.1452838 1.3855367-4.2671761 2.4698795-1.1218923 1.0843427-1.68283 2.5100313-1.68283 4.2771084 0 1.1245036.2604354 2.0883494.7813139 2.8915663.5208786.8032168 1.1819838 1.4457807 1.9833354 1.9277108s1.7228922.8232922 2.7646493 1.0240964 2.0434316.3012048 3.0050536.3012048c4.0067581 0 7.0718822-1.1044066 9.195464-3.313253s3.1853568-5.2007843 3.1853568-8.9759036zm-36.1808452-25.6626506c3.5259472-3.3735108 7.6328127-5.903606 12.3207197-7.5903614 4.687907-1.6867555 9.4759112-2.5301205 14.3641561-2.5301205 5.0485153 0 9.3156487.6224837 12.8015286 1.8674699 3.485879 1.2449861 6.310601 3.1726777 8.474251 5.7831325 2.163649 2.6104548 3.746295 5.9035946 4.747984 9.8795181 1.00169 3.9759235 1.502527 8.6947518 1.502527 14.1566265v30.2409638h-18.0303212v-6.3855421h-.3606065c-1.5225681 2.4899723-3.8264194 4.4176638-6.9116232 5.7831325s-6.4307967 2.0481928-10.036879 2.0481928c-2.4040549 0-4.8882077-.321282-7.4525329-.9638555s-4.9082436-1.6867397-7.0318254-3.1325301c-2.1235818-1.4457903-3.8664954-3.3734819-5.2287932-5.7831325s-2.0434365-5.3815084-2.0434365-8.9156627c0-4.337371 1.181976-7.831312 3.5459633-10.4819277 2.3639873-2.6506156 5.4090778-4.6987879 9.1353629-6.1445783 3.7262851-1.4457903 7.8732175-2.4096361 12.4409218-2.8915662 4.5677043-.4819302 9.0151392-.7228916 13.342438-.7228916v-.9638554c0-2.9719024-1.0417415-5.1606356-3.1252558-6.5662651-2.0835142-1.4056295-4.647801-2.1084337-7.6929372-2.1084337-2.8047307 0-5.5092518.6024036-8.1136446 1.8072289s-4.8281103 2.650594-6.671219 4.3373494zm96.6458914 60.8433731c-1.202027 3.132546-2.544271 5.923683-4.026772 8.373494-1.4825 2.449812-3.245447 4.538144-5.288894 6.265061-2.043447 1.726916-4.447466 3.032124-7.212129 3.915662-2.764663.883539-6.030122 1.325301-9.796474 1.325301-1.843109 0-3.746291-.12048-5.709602-.361445-1.963312-.240965-3.666158-.562247-5.108591-.963856l2.163638-16.626506c.961622.321287 2.023397.582329 3.185357.783133s2.223735.301205 3.185357.301205c3.045136 0 5.24882-.702805 6.611118-2.108434 1.362298-1.40563 2.52424-3.3935616 3.485862-5.9638556l1.923234-4.939759-25.002046-59.0361446h21.876791l13.342437 38.5542169h.360607l11.900012-38.5542169h20.915173zm32.611478-9.0361442v-91.08433732h19.953556v91.08433732zm95.039827-30.2409638c0 4.8996229-.881473 9.3373295-2.644447 13.313253-1.762973 3.9759235-4.166992 7.3493837-7.212128 10.1204819-3.045137 2.7710982-6.571031 4.9196711-10.577789 6.4457831-4.006758 1.5261121-8.293925 2.2891567-12.861629 2.2891567-4.487569 0-8.754703-.7630446-12.801529-2.2891567-4.046825-1.526112-7.57272-3.6746849-10.577788-6.4457831-3.005069-2.7710982-5.389054-6.1445584-7.152028-10.1204819-1.762973-3.9759235-2.644447-8.4136301-2.644447-13.313253s.881474-9.3172494 2.644447-13.2530121c1.762974-3.9357626 4.146959-7.2690626 7.152028-10 3.005068-2.7309373 6.530963-4.8192699 10.577788-6.2650602 4.046826-1.4457904 8.31396-2.1686747 12.801529-2.1686747 4.567704 0 8.854871.7228843 12.861629 2.1686747 4.006758 1.4457903 7.532652 3.5341229 10.577789 6.2650602 3.045136 2.7309374 5.449155 6.0642374 7.212128 10 1.762974 3.9357627 2.644447 8.3533892 2.644447 13.2530121zm-18.991938 0c0-1.9277205-.320536-3.8152518-.961617-5.6626506-.641082-1.8473988-1.562622-3.4738886-2.76465-4.8795181-1.202027-1.4056295-2.684505-2.5501964-4.447479-3.4337349-1.762974-.8835386-3.80639-1.3253012-6.130309-1.3253012-2.32392 0-4.367336.4417626-6.13031 1.3253012-1.762973.8835385-3.225418 2.0281054-4.387378 3.4337349s-2.043433 3.0321193-2.644447 4.8795181-.901516 3.7349301-.901516 5.6626506.300502 3.8152518.901516 5.6626506 1.502521 3.5140488 2.704548 5c1.202028 1.4859512 2.684506 2.6706783 4.44748 3.5542168 1.762973.8835386 3.806389 1.3253013 6.130309 1.3253013s4.367336-.4417627 6.130309-1.3253013c1.762974-.8835385 3.245452-2.0682656 4.447479-3.5542168 1.202028-1.4859512 2.103535-3.1526012 2.704549-5 .601013-1.8473988.901516-3.7349301.901516-5.6626506zm65.311515-13.6144579c-.881487-.240965-1.742927-.401606-2.584346-.4819277-.84142-.0803217-1.662793-.1204819-2.464144-.1204819-2.644461 0-4.868178.4819229-6.671219 1.4457831-1.803042.9638603-3.245453 2.1285073-4.327278 3.4939759-1.081824 1.3654687-1.86313 2.8513976-2.343941 4.4578314-.480811 1.6064337-.721213 3.0120421-.721213 4.2168674v30.8433735h-19.713152v-60h18.991939v8.6746988h.240404c1.522568-3.0522241 3.686185-5.542159 6.490916-7.4698795s6.050156-2.8915663 9.736374-2.8915663c.801351 0 1.582657.0401603 2.343941.120482s1.382323.2008024 1.863134.3614458z"/><path d="m22.9119234 207.797113v-85.662875h20.7167289v67.634953h33.0022309v18.027922zm99.4007436-37.023785c0-3.145828-.983633-5.847972-2.950929-8.106515s-4.918196-3.387797-8.852788-3.387797c-1.927148 0-3.693673.302479-5.299629.907445-1.605956.604967-3.011146 1.431743-4.215613 2.480352-1.2044672 1.048609-2.1680263 2.27869-2.8907065 3.690279s-1.1241632 2.883653-1.204461 4.416236zm18.187361 7.622544v2.419855c0 .806623-.040148 1.572902-.120446 2.298863h-43.4810415c.1605956 1.693907.6624493 3.226466 1.5055762 4.597725.8431269 1.371258 1.9271313 2.561008 3.2520443 3.569286 1.324914 1.008278 2.810401 1.794723 4.456506 2.359359s3.352408.846949 5.118959.846949c3.131614 0 5.781402-.584792 7.949443-1.754395 2.16804-1.169602 3.934565-2.681997 5.299628-4.537228l13.730855 8.711478c-2.810423 4.113775-6.52414 7.27972-11.141264 9.497932-4.617123 2.218212-9.976921 3.327301-16.079554 3.327301-4.496677 0-8.752396-.705784-12.7672864-2.117373-4.01489-1.41159-7.5278661-3.468446-10.5390336-6.170631s-5.3799171-6.029453-7.1063198-9.981903-2.5895911-8.469468-2.5895911-13.551189c0-4.920397.8431142-9.376919 2.529368-13.3697 1.6862539-3.992781 3.9747068-7.380545 6.8654276-10.163392 2.8907209-2.782848 6.3033262-4.94053 10.2379184-6.473113 3.9345919-1.532583 8.1903119-2.298862 12.7672859-2.298862 4.41638 0 8.471358.746114 12.165056 2.238366 3.693699 1.492251 6.865415 3.649934 9.515242 6.473112 2.649828 2.823179 4.717465 6.251273 6.202974 10.284385 1.48551 4.033112 2.228253 8.630791 2.228253 13.793175zm82.392565 17.54395c-3.773996 4.355761-8.431199 7.804021-13.971747 10.344881-5.540548 2.540861-11.924128 3.811272-19.15093 3.811272-6.584419 0-12.666887-1.088924-18.247584-3.266804-5.580697-2.177881-10.418567-5.263165-14.513754-9.255946-4.095188-3.992782-7.307052-8.771948-9.635688-14.337643-2.328637-5.565694-3.492937-11.695933-3.492937-18.390899 0-6.856291 1.184375-13.067191 3.55316-18.632886 2.368785-5.565694 5.640871-10.30453 9.816357-14.216649 4.175485-3.912119 9.073578-6.916742 14.694424-9.013961 5.620846-2.097218 11.683239-3.145811 18.187361-3.145811 6.022335 0 11.944208 1.068758 17.765799 3.206308 5.821591 2.137549 10.539016 5.263164 14.152417 9.376939l-13.971748 14.03516c-1.927147-2.661854-4.45649-4.638049-7.588104-5.928645s-6.343478-1.935885-9.635688-1.935885c-3.613401 0-6.925635.665454-9.936803 1.996381s-5.600733 3.165966-7.768773 5.505171c-2.168041 2.339205-3.854269 5.101845-5.058736 8.288004-1.204467 3.186158-1.806692 6.674748-1.806692 10.465874 0 3.871787.602225 7.420873 1.806692 10.647363 1.204467 3.226489 2.870621 5.98913 4.998513 8.288004 2.127891 2.298874 4.677308 4.093582 7.648327 5.384178 2.971018 1.290596 6.223031 1.935884 9.756134 1.935884 4.095188 0 7.668386-.806611 10.719703-2.419855 3.051316-1.613245 5.500362-3.710432 7.347212-6.291624zm42.597769-32.184074c-.883275-.241987-1.746464-.403309-2.589591-.483971s-1.666167-.120993-2.469145-.120993c-2.649827 0-4.878058.483966-6.684758 1.451913-1.806701.967947-3.252039 2.137532-4.33606 3.50879-1.08402 1.371258-1.866912 2.863487-2.348699 4.476732s-.722676 3.024813-.722676 4.234747v30.974147h-19.75316v-60.254395h19.030483v8.711479h.240892c1.525659-3.065166 3.693667-5.565658 6.50409-7.501552 2.810423-1.935893 6.062435-2.903826 9.756134-2.903826.802978 0 1.585869.040331 2.348698.120993.76283.080662 1.385128.201654 1.866915.362978zm68.205205 13.672182c0 4.920397-.883263 9.376919-2.649815 13.3697-1.766551 3.992781-4.175449 7.380544-7.226765 10.163392-3.051317 2.782847-6.584367 4.94053-10.599257 6.473113-4.01489 1.532582-8.310758 2.298862-12.887733 2.298862-4.496676 0-8.77247-.76628-12.827509-2.298862-4.055039-1.532583-7.588089-3.690266-10.599257-6.473113-3.011167-2.782848-5.399991-6.170611-7.166542-10.163392-1.766552-3.992781-2.649815-8.449303-2.649815-13.3697s.883263-9.356754 2.649815-13.309204c1.766551-3.95245 4.155375-7.299883 7.166542-10.042399 3.011168-2.742516 6.544218-4.839703 10.599257-6.291624 4.055039-1.45192 8.330833-2.177869 12.827509-2.177869 4.576975 0 8.872843.725949 12.887733 2.177869 4.01489 1.451921 7.54794 3.549108 10.599257 6.291624 3.051316 2.742516 5.460214 6.089949 7.226765 10.042399 1.766552 3.95245 2.649815 8.388807 2.649815 13.309204zm-19.030484 0c0-1.935894-.321186-3.831428-.963569-5.68666-.642382-1.855232-1.565793-3.488618-2.77026-4.900207s-2.689954-2.561009-4.456506-3.448293c-1.766551-.887285-3.814114-1.330921-6.142751-1.330921-2.328636 0-4.376199.443636-6.142751 1.330921-1.766551.887284-3.231964 2.036704-4.396282 3.448293s-2.047581 3.044975-2.649814 4.900207c-.602234 1.855232-.903346 3.750766-.903346 5.68666s.301112 3.831428.903346 5.68666c.602233 1.855231 1.50557 3.528948 2.710037 5.021199 1.204467 1.492252 2.689954 2.682002 4.456506 3.569287 1.766551.887284 3.814114 1.33092 6.142751 1.33092 2.328636 0 4.376199-.443636 6.142751-1.33092 1.766551-.887285 3.252038-2.077035 4.456505-3.569287 1.204467-1.492251 2.107804-3.165968 2.710037-5.021199.602234-1.855232.903346-3.750766.903346-5.68666zm58.387361 39.44364c-1.204467 3.145827-2.549435 5.948798-4.034945 8.408997-1.485509 2.460198-3.252034 4.557385-5.299628 6.291623-2.047594 1.734239-4.456492 3.04498-7.226766 3.932265s-6.04236 1.330921-9.816357 1.330921c-1.846849 0-3.753894-.120992-5.72119-.362979-1.967296-.241986-3.673598-.564631-5.118959-.967942l2.16803-16.697001c.963574.322649 2.027503.584797 3.191822.786453 1.164318.201656 2.228248.302482 3.191821.302482 3.051317 0 5.259473-.705784 6.624536-2.117373 1.365062-1.41159 2.529363-3.40795 3.492936-5.989142l1.927138-4.960703-25.052788-59.286453h21.921189l13.369517 38.717683h.361339l11.924163-38.717683h20.957621z"/></g></svg>