<svg height="596" viewBox="0 0 465 596" width="465" xmlns="https://www.w3.org/2000/svg"><path d="m386.417631 412.154709c0-17.559289 3.91737-35.258668 11.56112-55.448591 4.926167-13.011799 7.512882-18.660855 21.611122-48.27668 11.043117-23.198002 16.986854-36.960643 22.069117-52.34377 6.488128-19.638433 9.84101-38.021644 9.84101-56.623051 0-47.799771-11.683615-90.949317-37.198247-123.4127166-31.620404-40.2320446-83.124328-62.5499004-157.66874-62.5499004-74.808904 0-123.317007 24.1701096-151.285423 69.2418091-22.7353423 36.6384899-31.5096107 85.2357259-30.9981669 149.4286159.0096174 1.207107-.3170997 2.393045-.9435408 3.424923-26.8752253 44.26904-45.7416027 76.031533-56.5697875 95.23354l45.0426294 10.866215c2.7710205.668489 4.7831767 3.064418 4.9627415 5.909271 1.2366229 19.591868 2.3969835 39.123826 3.4810811 58.595875 19.8893892 1.116284 54.4149422-3.819038 103.0926182-14.891906 5.366644-1.220767 9.726951 4.364133 7.240756 9.274324-9.501379 18.765054-24.606301 33.699257-45.143832 44.731176-16.812786 9.031139-33.388763 15.202537-49.7216422 18.490831 10.6078911 16.478348 24.4726792 25.925212 41.8310212 28.712655 21.452595 3.444909 50.503216 3.444909 87.056579-.052667 2.963997-.283608 5.741706 1.482981 6.741631 4.287596l30.538331 85.654633c34.552737-.894735 66.035091-6.138882 94.462194-15.714653 27.563072-9.284719 51.173746-22.73074 70.88658-40.343435-20.613088-31.242345-30.889152-69.359837-30.889152-114.194094zm-292.1161452-336.2673571c30.4665632-49.0975171 83.2288402-75.3873519 162.3315272-75.3873519 78.345291 0 133.66525 23.9714332 167.889704 67.5167262 27.541692 35.0425168 39.977283 80.9692368 39.977283 131.4458908 0 20.089141-3.598864 39.821021-10.497231 60.701178-5.298297 16.037024-11.412772 30.195008-22.675011 53.853315-13.907308 29.214737-16.447519 34.762235-21.191147 47.29188-7.129943 18.832772-10.71898 35.048685-10.71898 50.845719 0 44.550534 10.600315 81.623821 31.730166 111.403772 1.871427 2.637548 1.519172 6.249717-.826571 8.476011-21.910354 20.794641-48.516297 36.456019-79.751051 46.977557-31.023209 10.450278-65.384888 15.93927-103.067781 16.487264-2.782708.040467-5.28243-1.695083-6.217027-4.316462l-30.416178-85.312015c-35.217973 3.12121-63.626621 2.963842-85.308886-.517947-24.211259-3.887901-42.9457268-18.547726-55.8441329-43.414644-2.0727586-3.996084.4459478-8.838358 4.9078424-9.435445 17.7581349-2.376381 36.0000225-8.576917 54.7363465-18.641302 13.283028-7.135098 23.875337-15.972728 31.842717-26.540384-46.662266 9.993398-79.1447176 13.78024-97.9202477 11.276565-3.0953118-.412753-5.4596972-2.968287-5.6310508-6.086293-1.0829738-19.70615-2.2442869-39.473997-3.4839397-59.303541l-48.69218675-11.746644c-4.15906176-1.003344-6.23120862-5.681691-4.17940694-9.435969 9.77822049-17.89167 29.77787179-51.732861 60.04133739-101.601476-.3451199-65.524674 8.8763889-115.718859 32.9639043-154.5364041zm152.1173142-35.3873519c-48.366305 0-81.640457 16.3798138-100.184224 43.8216507-14.358107 21.2477253-18.194256 48.3285103-11.867642 64.6230793 2.372024 6.109289 7.151652 12.168251 14.796579 18.850533 5.519962 4.824892 12.404513 9.898292 22.093016 16.410096 5.308584 3.567987 25.878694 16.960466 29.019325 19.035403 28.027871 18.517323 48.942001 34.213501 70.1169 53.857882 28.411856 26.358253 56.170872 36.582147 81.162054 32.562903 21.623963-3.477706 40.535279-17.799641 52.687021-38.713038 8.730997-15.026225 14.046364-30.44194 15.882756-46.28982 4.153336-35.842872-.655385-68.425011-18.073988-96.448343-29.304294-47.145222-80.583531-67.710346-155.631797-67.710346zm0-13c79.10481 0 134.606178 22.2583758 166.672736 73.847573 19.17961 30.856467 24.409576 66.292811 19.946641 104.807494-2.048104 17.674937-7.950555 34.793321-17.556071 51.324612-14.011629 24.114302-36.152416 40.881981-61.863078 45.016937-29.249473 4.70409-60.900806-6.95338-92.067781-35.867612-20.568177-19.081513-40.956439-34.383025-68.441443-52.541689-3.069274-2.027793-23.701518-15.460725-29.105035-19.092518-10.104911-6.791679-17.382872-12.154993-23.396718-17.411579-9.092414-7.947502-15.119478-15.587793-18.35973-23.933253-7.922802-20.405649-3.456329-51.936128 13.21496-76.6069954 21.050048-31.1507373 58.412252-49.5429696 110.955519-49.5429696z" transform=""/></svg>
